<svg width="88" height="141" viewBox="0 0 88 141" fill="none" xmlns="http://www.w3.org/2000/svg">
<g filter="url(#filter0_d_318_264)">
<path d="M16.2858 74.8834L16.2858 74.8834L16.2428 74.8716C14.7197 74.4542 12.2703 73.7828 9.92727 74.8308L9.92726 74.8309C9.63625 74.961 9.33461 75.1006 9.0754 75.2867C8.81934 75.4704 8.63989 75.6751 8.55584 75.9185L16.2858 74.8834ZM16.2858 74.8834C19.7922 75.8439 22.3814 76.3774 24.3064 76.7741C25.1105 76.9398 25.7988 77.0816 26.3896 77.2207C27.4048 77.4597 28.1191 77.6868 28.6807 77.9977C29.2273 78.3003 29.6486 78.6935 30.0518 79.3L30.0519 79.3001M16.2858 74.8834L30.0519 79.3001M30.0519 79.3001C30.2468 79.5931 31.1926 81.0263 31.0045 82.8444M30.0519 79.3001L31.0045 82.8444M31.0045 82.8444C30.854 84.2948 30.0388 85.4251 29.5387 85.9094M31.0045 82.8444L29.5387 85.9094M29.5387 85.9094C28.8127 86.6122 27.7335 86.9588 26.3666 86.9745C25.0014 86.9902 23.4025 86.6738 21.7151 86.1108C18.3407 84.9849 14.7125 82.9069 12.075 80.739C11.4872 80.2559 10.4437 79.3969 9.62465 78.4413C9.21482 77.9631 8.88046 77.4823 8.6849 77.0325C8.48885 76.5815 8.45397 76.2138 8.55582 75.9186L29.5387 85.9094Z" fill="url(#paint0_linear_318_264)" stroke="white"/>
<path d="M47.0869 7.63367H44.9727V21.5075H47.0869V7.63367Z" fill="url(#paint1_linear_318_264)"/>
<path d="M53.3305 28.6711H38.7291C37.9285 28.6711 37.2798 28.0223 37.2798 27.2217V22.0033C37.2798 21.2027 37.9285 20.554 38.7291 20.554H53.3305C54.1311 20.554 54.7799 21.2027 54.7799 22.0033V27.2215C54.7799 27.2216 54.7799 27.2217 54.7799 27.2217C54.7795 28.0225 54.1305 28.6711 53.3305 28.6711Z" fill="url(#paint2_linear_318_264)" stroke="white"/>
<path d="M78.629 59.4956C78.629 67.6479 72.0199 74.2569 63.8677 74.2569H28.1919C20.0742 74.2569 13.4307 67.6133 13.4307 59.4956V51.5679C13.4307 36.9099 25.4256 24.9146 40.084 24.9146H51.9761C66.6341 24.9146 78.6294 36.9095 78.6294 51.5679L78.629 59.4956Z" fill="url(#paint3_linear_318_264)" stroke="white"/>
<path d="M68.7164 58.0503C67.8502 58.4784 66.8792 58.7028 65.8927 58.7028H26.1667C25.1802 58.7028 24.2092 58.4784 23.343 58.0503C21.2154 56.9986 20.0148 54.8749 20.3152 52.6964L20.3372 52.538C21.3553 45.1588 28.0384 39.4855 36.232 39.0591C39.6987 38.8787 43.3368 38.7855 47.1315 38.8075C50.1041 38.8248 52.9774 38.9119 55.7441 39.0543C63.9688 39.4781 70.7011 45.129 71.7231 52.5363C71.7304 52.5894 71.7377 52.6429 71.7451 52.696C72.045 54.8749 70.844 56.9986 68.7164 58.0503Z" fill="url(#paint4_linear_318_264)"/>
<path d="M35.5599 57.0766C39.697 57.0766 43.0509 53.7228 43.0509 49.5856C43.0509 45.4484 39.697 42.0946 35.5599 42.0946C31.4227 42.0946 28.0688 45.4484 28.0688 49.5856C28.0688 53.7228 31.4227 57.0766 35.5599 57.0766Z" fill="url(#paint5_radial_318_264)"/>
<path d="M35.5599 54.9625C38.5294 54.9625 40.9367 52.5552 40.9367 49.5857C40.9367 46.6161 38.5294 44.2089 35.5599 44.2089C32.5904 44.2089 30.1831 46.6161 30.1831 49.5857C30.1831 52.5552 32.5904 54.9625 35.5599 54.9625Z" fill="#EEFDFF"/>
<path d="M35.5598 54.1016C38.0538 54.1016 40.0756 52.0798 40.0756 49.5858C40.0756 47.0918 38.0538 45.0699 35.5598 45.0699C33.0658 45.0699 31.0439 47.0918 31.0439 49.5858C31.0439 52.0798 33.0658 54.1016 35.5598 54.1016Z" fill="url(#paint6_linear_318_264)"/>
<path d="M38.4529 48.4154C38.4529 49.3394 37.7041 50.0881 36.7801 50.0881C35.8562 50.0881 35.1074 49.3389 35.1074 48.4154C35.1074 47.4919 35.8562 46.7427 36.7801 46.7427C37.7041 46.7427 38.4529 47.4919 38.4529 48.4154Z" fill="#EEFDFF"/>
<path d="M34.8922 53.7166C35.2609 53.7166 35.5599 53.4177 35.5599 53.049C35.5599 52.6803 35.2609 52.3813 34.8922 52.3813C34.5235 52.3813 34.2246 52.6803 34.2246 53.049C34.2246 53.4177 34.5235 53.7166 34.8922 53.7166Z" fill="#EEFDFF"/>
<path d="M33.237 52.0473C33.237 52.2316 33.0877 52.3809 32.9034 52.3809C32.7191 52.3809 32.5698 52.2316 32.5698 52.0473C32.5698 51.8631 32.7191 51.7137 32.9034 51.7137C33.0877 51.7137 33.237 51.8635 33.237 52.0473Z" fill="#EEFDFF"/>
<path d="M55.7962 57.0766C59.9334 57.0766 63.2872 53.7228 63.2872 49.5856C63.2872 45.4484 59.9334 42.0946 55.7962 42.0946C51.659 42.0946 48.3052 45.4484 48.3052 49.5856C48.3052 53.7228 51.659 57.0766 55.7962 57.0766Z" fill="url(#paint7_radial_318_264)"/>
<path d="M55.7962 54.9625C58.7658 54.9625 61.173 52.5552 61.173 49.5857C61.173 46.6161 58.7658 44.2089 55.7962 44.2089C52.8267 44.2089 50.4194 46.6161 50.4194 49.5857C50.4194 52.5552 52.8267 54.9625 55.7962 54.9625Z" fill="#EEFDFF"/>
<path d="M55.7966 54.1016C58.2906 54.1016 60.3125 52.0798 60.3125 49.5858C60.3125 47.0918 58.2906 45.0699 55.7966 45.0699C53.3026 45.0699 51.2808 47.0918 51.2808 49.5858C51.2808 52.0798 53.3026 54.1016 55.7966 54.1016Z" fill="url(#paint8_linear_318_264)"/>
<path d="M58.6896 48.4154C58.6896 49.3394 57.9405 50.0881 57.0169 50.0881C56.0934 50.0881 55.3438 49.3389 55.3438 48.4154C55.3438 47.4919 56.0929 46.7427 57.0169 46.7427C57.9409 46.7427 58.6896 47.4919 58.6896 48.4154Z" fill="#EEFDFF"/>
<path d="M55.1291 53.7166C55.4978 53.7166 55.7967 53.4177 55.7967 53.049C55.7967 52.6803 55.4978 52.3813 55.1291 52.3813C54.7603 52.3813 54.4614 52.6803 54.4614 53.049C54.4614 53.4177 54.7603 53.7166 55.1291 53.7166Z" fill="#EEFDFF"/>
<path d="M53.4733 52.0473C53.4733 52.2316 53.324 52.3809 53.1398 52.3809C52.9555 52.3809 52.8062 52.2316 52.8062 52.0473C52.8062 51.8631 52.9555 51.7137 53.1398 51.7137C53.324 51.7137 53.4733 51.8635 53.4733 52.0473Z" fill="#EEFDFF"/>
<path d="M48.7382 6.7089C48.7382 8.20469 47.5255 9.41781 46.0293 9.41781C44.5335 9.41781 43.3208 8.20512 43.3208 6.7089C43.3208 5.21312 44.5335 4 46.0293 4C47.5255 4 48.7382 5.21268 48.7382 6.7089Z" fill="url(#paint9_linear_318_264)"/>
<path d="M47.9128 5.65157C47.9128 6.10773 47.5429 6.47714 47.0867 6.47714C46.6306 6.47714 46.2607 6.1073 46.2607 5.65157C46.2607 5.19541 46.6306 4.82556 47.0867 4.82556C47.5429 4.82599 47.9128 5.19541 47.9128 5.65157Z" fill="white"/>
<path d="M69.3531 33.0996C69.3889 34.3641 68.3566 35.8767 67.1741 36.0058C66.0659 36.127 65.1807 34.9946 64.268 33.8268C63.3682 32.6758 61.4007 29.7188 62.1844 28.8824C63.2172 27.7798 69.2681 30.1163 69.3531 33.0996Z" fill="white"/>
<path d="M59.2279 28.2791C59.7477 28.2791 60.1691 27.8577 60.1691 27.3378C60.1691 26.818 59.7477 26.3966 59.2279 26.3966C58.708 26.3966 58.2866 26.818 58.2866 27.3378C58.2866 27.8577 58.708 28.2791 59.2279 28.2791Z" fill="white"/>
<path d="M69.2188 50.6417C68.9167 50.8549 66.8111 46.5652 61.1585 42.846C59.1716 41.5384 57.2102 40.6066 57.3267 40.3356C57.445 40.0607 59.6541 40.5721 61.4227 41.3925C67.058 44.0069 69.5778 50.3884 69.2188 50.6417Z" fill="white"/>
<path d="M54.7444 22.753C54.6771 22.7625 54.6339 22.3667 54.3042 21.7552C54.3042 21.7552 54.1501 21.4691 53.974 21.2265C53.4065 20.4454 51.4827 20.4627 51.3316 20.464C48.3353 20.4899 46.4088 20.3 46.4097 20.3181C46.4101 20.3332 47.8153 20.3047 48.845 20.284C51.7498 20.2249 53.4803 20.0687 54.2222 20.8468C54.5299 21.1696 54.6848 21.5899 54.6848 21.5899C54.8946 22.1604 54.8247 22.7413 54.7444 22.753Z" fill="white"/>
<path d="M54.1212 61.9175C54.0478 62.6352 53.4505 63.188 52.7324 63.2571L42.8091 64.2139C42.0914 64.2829 41.3992 63.8552 41.1899 63.1647C41.0967 62.8579 41.0251 62.5416 40.9763 62.2162C40.9629 62.1264 40.9867 62.0349 41.0428 61.9628C41.0989 61.8912 41.1817 61.8459 41.2724 61.8368L53.7915 60.6293C53.8808 60.6207 53.9693 60.6492 54.037 60.7079C54.1048 60.7666 54.1449 60.8507 54.1488 60.94C54.1639 61.2711 54.154 61.5973 54.1212 61.9175Z" fill="#EEFDFF"/>
<path d="M54.1217 61.9183C53.8045 64.9945 51.3588 67.5234 48.164 67.8286C45.0127 68.1337 42.1666 66.1796 41.231 63.286C41.4808 63.9044 42.1308 64.2811 42.8087 64.2134L52.7346 63.2579C53.4519 63.1867 54.0466 62.6356 54.1217 61.9183Z" fill="url(#paint10_linear_318_264)"/>
<path d="M69.2528 84.4436L69.2526 84.448C69.2237 85.2129 69.0449 85.7878 68.9574 86.0471L68.956 86.0514C66.2215 94.4053 64.6022 98.7433 62.3477 102.24L62.3477 102.24C61.959 102.843 61.5509 103.421 61.1119 103.988L61.109 103.992C60.5343 104.75 59.9028 105.491 59.1968 106.259C57.7638 107.818 55.6006 108.568 54.7362 108.868C54.7034 108.88 54.6724 108.89 54.6435 108.901L54.6416 108.901C52.3002 109.729 50.2049 109.716 48.5832 109.706C48.3161 109.704 48.0618 109.703 47.8214 109.705H47.5367C47.2956 109.703 47.0409 109.704 46.7734 109.706C45.15 109.716 43.0578 109.729 40.7166 108.901L40.7147 108.901C40.685 108.89 40.6533 108.879 40.6197 108.868C39.7531 108.567 37.5895 107.817 36.1617 106.26L36.1614 106.259C31.8813 101.602 30.2312 97.7528 26.4021 86.0515L26.4022 86.0515L26.4006 86.0468C26.3166 85.7985 26.1492 85.2639 26.109 84.5471C26.098 84.3321 26.0943 84.126 26.1051 83.9242C26.1816 82.6444 26.7006 81.3697 27.6527 80.1859L27.653 80.1855C29.2749 78.165 31.7906 77.0464 34.4083 77.0348C34.4084 77.0348 34.4084 77.0348 34.4084 77.0348L47.6834 76.9792L47.6835 76.9792L60.717 76.9278L60.7171 76.9278C63.3936 76.9163 65.973 78.04 67.6575 80.0903C68.4759 81.0884 68.9831 82.1476 69.1687 83.2224C69.1946 83.3788 69.2164 83.5355 69.2309 83.6862C69.2455 83.8669 69.2562 84.0365 69.2562 84.2054C69.2562 84.2989 69.2561 84.3741 69.2528 84.4436Z" fill="url(#paint11_linear_318_264)" stroke="white"/>
<path d="M47.6786 76.4814L34.4034 76.537C31.6483 76.5491 28.9847 77.7264 27.2602 79.8747C26.2534 81.1276 25.6867 82.499 25.603 83.8982C25.6704 82.4632 26.2612 81.0559 27.3116 79.7755C29.0952 77.5991 31.8266 76.4179 34.6408 76.43L47.6786 76.4814Z" fill="url(#paint12_linear_318_264)"/>
<path d="M61.7235 81.5771L61.7235 81.5771C61.2555 82.135 60.9972 82.6501 60.8611 83.2599C60.7214 83.8863 60.7052 84.6356 60.7625 85.6771C60.7959 86.2831 60.8541 86.9833 60.9221 87.8015C61.0851 89.7602 61.3042 92.3948 61.3726 96.0298C61.3726 96.0298 61.3726 96.0298 61.3726 96.0299L61.3734 96.0756C61.4031 97.6543 61.4509 100.193 63.1173 102.145L63.1173 102.145C63.3241 102.387 63.5431 102.637 63.7947 102.833C64.0432 103.027 64.2903 103.141 64.5476 103.153C64.8597 103.168 65.2026 103.031 65.58 102.715C65.9564 102.401 66.3232 101.944 66.6663 101.416C67.3519 100.361 67.8814 99.117 68.1788 98.4168L68.1788 98.4167C69.514 95.2744 70.4832 91.2071 70.6108 87.652C70.6746 85.8743 70.5268 84.2512 70.1263 82.9459C69.7254 81.6391 69.0883 80.7017 68.2093 80.2037L61.7235 81.5771ZM61.7235 81.5771C61.9501 81.3071 63.0576 79.9952 64.855 79.6625L61.7235 81.5771ZM64.855 79.6625C66.2888 79.3973 67.6028 79.8604 68.2092 80.2036L64.855 79.6625Z" fill="url(#paint13_linear_318_264)" stroke="white"/>
<path d="M62.7676 102.511C62.3714 103.125 61.955 103.716 61.507 104.295C61.3642 104.148 61.2373 104.001 61.1225 103.866C59.3069 101.742 59.2871 98.9907 59.2595 97.4371C59.0653 87.1388 57.67 85.1052 59.7273 82.6553C59.8779 82.4732 60.429 81.8189 61.3249 81.276C59.2953 83.7178 60.6789 85.7711 60.8731 96.038C60.9007 97.5916 60.9244 100.343 62.7361 102.472C62.7478 102.483 62.7598 102.495 62.7676 102.511Z" fill="url(#paint14_linear_318_264)"/>
<path d="M68.5785 87.4641C68.5203 86.3576 68.3127 85.5441 67.8975 83.9162C67.3546 81.7869 66.6736 80.749 67.116 80.3377C67.4038 80.0702 67.9709 80.251 68.0995 80.292C70.0458 80.913 70.6483 84.5644 70.5646 86.8496C70.5132 88.2487 70.1718 89.8131 69.6592 89.8821C69.5785 89.8929 69.3773 89.8826 69.2336 89.7552C68.6614 89.2499 68.623 88.3052 68.5785 87.4641Z" fill="white"/>
<path d="M69.9148 91.3693C69.9148 91.5924 69.734 91.7732 69.5109 91.7732C69.2878 91.7732 69.1069 91.5924 69.1069 91.3693C69.1069 91.1461 69.2878 90.9653 69.5109 90.9653C69.734 90.9653 69.9148 91.1461 69.9148 91.3693Z" fill="white"/>
<path d="M47.0868 128.805C58.7823 128.805 68.2635 124.924 68.2635 120.135C68.2635 115.347 58.7823 111.466 47.0868 111.466C35.3913 111.466 25.9102 115.347 25.9102 120.135C25.9102 124.924 35.3913 128.805 47.0868 128.805Z" fill="url(#paint15_radial_318_264)"/>
</g>
<defs>
<filter id="filter0_d_318_264" x="0" y="0" width="87.1294" height="140.805" filterUnits="userSpaceOnUse" color-interpolation-filters="sRGB">
<feFlood flood-opacity="0" result="BackgroundImageFix"/>
<feColorMatrix in="SourceAlpha" type="matrix" values="0 0 0 0 0 0 0 0 0 0 0 0 0 0 0 0 0 0 127 0" result="hardAlpha"/>
<feOffset dy="4"/>
<feGaussianBlur stdDeviation="4"/>
<feComposite in2="hardAlpha" operator="out"/>
<feColorMatrix type="matrix" values="0 0 0 0 0 0 0 0 0 0 0 0 0 0 0 0 0 0 0.15 0"/>
<feBlend mode="normal" in2="BackgroundImageFix" result="effect1_dropShadow_318_264"/>
<feBlend mode="normal" in="SourceGraphic" in2="effect1_dropShadow_318_264" result="shape"/>
</filter>
<linearGradient id="paint0_linear_318_264" x1="22.0711" y1="80.6616" x2="60.5851" y2="110.594" gradientUnits="userSpaceOnUse">
<stop offset="0.0397" stop-color="#685EEF"/>
<stop offset="1" stop-color="#FFF796"/>
</linearGradient>
<linearGradient id="paint1_linear_318_264" x1="41.7211" y1="15.1989" x2="48.0635" y2="14.2739" gradientUnits="userSpaceOnUse">
<stop offset="0.0397" stop-color="#685EEF"/>
<stop offset="1" stop-color="#685EEF" stop-opacity="0.41"/>
</linearGradient>
<linearGradient id="paint2_linear_318_264" x1="40.1033" y1="31.3036" x2="51.3587" y2="18.5959" gradientUnits="userSpaceOnUse">
<stop offset="0.0397" stop-color="#685EEF"/>
<stop offset="1" stop-color="#C4C1F5"/>
</linearGradient>
<linearGradient id="paint3_linear_318_264" x1="23.801" y1="75.3208" x2="68.402" y2="30.7198" gradientUnits="userSpaceOnUse">
<stop offset="0.0397" stop-color="#685EEF"/>
<stop offset="1" stop-color="#E9E7FC"/>
</linearGradient>
<linearGradient id="paint4_linear_318_264" x1="45.9122" y1="58.6385" x2="46.3087" y2="40.8007" gradientUnits="userSpaceOnUse">
<stop stop-color="#9747FF"/>
<stop offset="1" stop-color="#685EEF"/>
</linearGradient>
<radialGradient id="paint5_radial_318_264" cx="0" cy="0" r="1" gradientUnits="userSpaceOnUse" gradientTransform="translate(35.5597 49.5856) scale(7.41351 7.41351)">
<stop offset="0.1296" stop-color="#3280FC"/>
<stop offset="1"/>
</radialGradient>
<linearGradient id="paint6_linear_318_264" x1="31.0436" y1="49.5857" x2="40.0756" y2="49.5857" gradientUnits="userSpaceOnUse">
<stop stop-color="#030D14"/>
<stop offset="1" stop-color="#0B2F45"/>
</linearGradient>
<radialGradient id="paint7_radial_318_264" cx="0" cy="0" r="1" gradientUnits="userSpaceOnUse" gradientTransform="translate(55.7961 49.5856) scale(7.41351)">
<stop offset="0.1296" stop-color="#3280FC"/>
<stop offset="1"/>
</radialGradient>
<linearGradient id="paint8_linear_318_264" x1="51.2805" y1="49.5857" x2="60.3125" y2="49.5857" gradientUnits="userSpaceOnUse">
<stop stop-color="#030D14"/>
<stop offset="1" stop-color="#0B2F45"/>
</linearGradient>
<linearGradient id="paint9_linear_318_264" x1="40.3275" y1="7.54026" x2="48.721" y2="6.31618" gradientUnits="userSpaceOnUse">
<stop stop-color="#685EEF"/>
<stop offset="1" stop-color="#685EEF" stop-opacity="0.4"/>
</linearGradient>
<linearGradient id="paint10_linear_318_264" x1="45.7587" y1="65.5668" x2="58.6722" y2="52.6533" gradientUnits="userSpaceOnUse">
<stop offset="0.0714" stop-color="#7167E9"/>
<stop offset="1" stop-color="#FFF796"/>
</linearGradient>
<linearGradient id="paint11_linear_318_264" x1="33.5624" y1="104.754" x2="67.7767" y2="64.8007" gradientUnits="userSpaceOnUse">
<stop offset="0.0397" stop-color="#685EEF"/>
<stop offset="0.0408" stop-color="#685EEF"/>
<stop offset="0.1607" stop-color="#685EEF"/>
<stop offset="0.2745" stop-color="#685EEF"/>
<stop offset="0.3793" stop-color="#685EEF"/>
<stop offset="0.4719" stop-color="#685EEF"/>
<stop offset="0.5423" stop-color="#685EEF"/>
<stop offset="0.8004" stop-color="#685EEF" stop-opacity="0.223529"/>
<stop offset="1" stop-color="#FFF796"/>
</linearGradient>
<linearGradient id="paint12_linear_318_264" x1="31.7497" y1="84.8357" x2="52.3249" y2="60.8092" gradientUnits="userSpaceOnUse">
<stop offset="0.0397" stop-color="#06CFF1"/>
<stop offset="1" stop-color="#DEFA8E"/>
</linearGradient>
<linearGradient id="paint13_linear_318_264" x1="75.9585" y1="98.7884" x2="50.3414" y2="80.0524" gradientUnits="userSpaceOnUse">
<stop offset="0.0397" stop-color="#685EEF"/>
<stop offset="0.0734" stop-color="#7B72F3"/>
<stop offset="0.4151" stop-color="#918AFB"/>
<stop offset="0.6937" stop-color="#BCB8FF"/>
<stop offset="0.8955" stop-color="#D0CDFF"/>
<stop offset="1" stop-color="#FFF796"/>
</linearGradient>
<linearGradient id="paint14_linear_318_264" x1="53.3834" y1="96.9713" x2="71.5384" y2="87.5103" gradientUnits="userSpaceOnUse">
<stop offset="0.0397" stop-color="#685EEF"/>
<stop offset="1" stop-color="#D9D9CE"/>
</linearGradient>
<radialGradient id="paint15_radial_318_264" cx="0" cy="0" r="1" gradientUnits="userSpaceOnUse" gradientTransform="translate(47.0868 120.136) scale(21.1766 8.66943)">
<stop stop-color="#685EEF"/>
<stop offset="1" stop-color="#F6EEFF"/>
</radialGradient>
</defs>
</svg>
