<svg width="190" height="100" viewBox="0 0 190 100" fill="none" xmlns="http://www.w3.org/2000/svg">
<g filter="url(#filter0_d_366_728)">
<mask id="path-1-inside-1_366_728" fill="white">
<path d="M25.9045 87.6506C25.3201 87.6506 24.8679 87.4828 24.5479 87.1473C24.2278 86.7979 23.9982 86.3436 23.8591 85.7845C23.72 85.2114 23.6365 84.5824 23.6086 83.8974C23.5808 83.2125 23.5669 82.5276 23.5669 81.8427C23.5669 81.5072 23.5669 81.0739 23.5669 80.5427C23.5808 79.9976 23.5878 79.4454 23.5878 78.8863C23.6017 78.3132 23.6156 77.81 23.6295 77.3767C23.6434 76.9294 23.6573 76.6219 23.6713 76.4541C23.6991 75.4477 23.9078 74.616 24.2974 73.959C24.687 73.3021 25.2645 72.9736 26.0298 72.9736C26.9064 72.9736 27.5047 73.358 27.8247 74.1268C28.1587 74.8816 28.3257 75.9719 28.3257 77.3976C28.3257 77.5514 28.3257 77.7611 28.3257 78.0267C28.59 77.5374 28.9101 77.0063 29.2858 76.4331C29.6754 75.86 30.0997 75.3149 30.5589 74.7977C31.0181 74.2805 31.5051 73.8612 32.0199 73.5397C32.5348 73.2042 33.0566 73.0365 33.5853 73.0365C34.2393 73.0365 34.775 73.2881 35.1925 73.7913C35.6238 74.2805 35.8395 74.8886 35.8395 75.6154C35.8395 76.2724 35.6447 76.9154 35.2551 77.5444C34.8794 78.1594 34.3576 78.7186 33.6897 79.2218C33.0218 79.725 32.2426 80.1373 31.3521 80.4588C31.8669 80.6965 32.3887 80.983 32.9174 81.3185C33.4462 81.64 33.9262 82.0034 34.3576 82.4088C34.8028 82.8002 35.1577 83.2265 35.422 83.6878C35.6864 84.1491 35.8186 84.6453 35.8186 85.1764C35.8186 85.7635 35.7003 86.2388 35.4638 86.6022C35.2412 86.9656 34.9489 87.2312 34.5872 87.399C34.2254 87.5667 33.8428 87.6506 33.4392 87.6506C32.7296 87.6506 32.0686 87.4199 31.4564 86.9586C30.8442 86.4974 30.2737 85.8963 29.7449 85.1555C29.2301 84.4146 28.75 83.6389 28.3048 82.8281C28.3048 83.4432 28.277 84.0372 28.2213 84.6103C28.1795 85.1834 28.0821 85.7006 27.9291 86.1619C27.776 86.6232 27.5395 86.9866 27.2194 87.2522C26.8994 87.5178 26.4611 87.6506 25.9045 87.6506Z"/>
<path d="M40.084 77.4815C39.4022 77.4815 38.8247 77.2369 38.3516 76.7477C37.8786 76.2444 37.642 75.6364 37.642 74.9235C37.642 74.4483 37.7464 74.0219 37.9551 73.6445C38.1777 73.2671 38.4699 72.9666 38.8317 72.7429C39.2074 72.5053 39.6248 72.3865 40.084 72.3865C40.5293 72.3865 40.9328 72.5053 41.2946 72.7429C41.6703 72.9666 41.9694 73.2671 42.192 73.6445C42.4147 74.0219 42.526 74.4483 42.526 74.9235C42.526 75.3988 42.4147 75.8321 42.192 76.2235C41.9694 76.6009 41.6703 76.9084 41.2946 77.146C40.9328 77.3697 40.5293 77.4815 40.084 77.4815ZM40.084 87.6506C39.5274 87.6506 39.11 87.4898 38.8317 87.1683C38.5673 86.8468 38.3864 86.3576 38.289 85.7006C38.2055 85.0297 38.1568 84.17 38.1429 83.1217C38.1429 82.0733 38.1847 81.2137 38.2682 80.5427C38.3656 79.8718 38.5534 79.3825 38.8317 79.075C39.11 78.7535 39.5274 78.5928 40.084 78.5928C40.6406 78.5928 41.0511 78.7535 41.3154 79.075C41.5937 79.3825 41.7816 79.8718 41.879 80.5427C41.9764 81.2137 42.0251 82.0733 42.0251 83.1217C42.039 84.17 41.9972 85.0297 41.8998 85.7006C41.8024 86.3576 41.6146 86.8468 41.3363 87.1683C41.058 87.4898 40.6406 87.6506 40.084 87.6506Z"/>
<path d="M48.8985 87.6506C47.8688 87.6506 46.9782 87.4059 46.2269 86.9167C45.4894 86.4275 44.9189 85.7915 44.5154 85.0087C44.1258 84.2259 43.931 83.4082 43.931 82.5555C43.931 81.4653 44.1467 80.5707 44.578 79.8718C45.0233 79.1729 45.5868 78.6557 46.2686 78.3202C46.9504 77.9707 47.6601 77.796 48.3975 77.796C48.7454 77.796 49.1002 77.838 49.462 77.9218C49.8238 77.9917 50.1647 78.1175 50.4847 78.2992C50.429 77.6982 50.3038 77.1111 50.109 76.538C49.9281 75.9509 49.8377 75.3568 49.8377 74.7558C49.8377 74.1407 50.0255 73.6865 50.4012 73.3929C50.7769 73.0994 51.1804 72.9526 51.6118 72.9526C52.1127 72.9526 52.544 73.1134 52.9058 73.4349C53.2676 73.7563 53.5737 74.1827 53.8242 74.7138C54.0886 75.245 54.2973 75.8461 54.4503 76.517C54.6034 77.174 54.7147 77.8519 54.7843 78.5508C54.8539 79.2497 54.8886 79.9207 54.8886 80.5637C54.8886 80.7734 54.8747 81.0948 54.8469 81.5282C54.833 81.9615 54.7704 82.4437 54.659 82.9749C54.5477 83.5061 54.3668 84.0442 54.1164 84.5894C53.8798 85.1345 53.5389 85.6377 53.0937 86.099C52.6623 86.5603 52.1057 86.9377 51.4239 87.2312C50.7421 87.5108 49.9003 87.6506 48.8985 87.6506ZM49.0237 84.3378C49.3994 84.3378 49.7264 84.198 50.0047 83.9184C50.2829 83.6249 50.4221 83.2824 50.4221 82.891C50.4221 82.4996 50.2829 82.1572 50.0047 81.8636C49.7264 81.5701 49.3994 81.4233 49.0237 81.4233C48.648 81.4233 48.314 81.5701 48.0218 81.8636C47.7435 82.1572 47.6044 82.4996 47.6044 82.891C47.6044 83.2824 47.7435 83.6249 48.0218 83.9184C48.314 84.198 48.648 84.3378 49.0237 84.3378Z"/>
<path d="M60.3013 87.6506C59.0768 87.6506 58.1028 87.4479 57.3793 87.0425C56.6557 86.6371 56.2939 86.113 56.2939 85.47C56.2939 85.0227 56.4401 84.6942 56.7323 84.4845C57.0384 84.2609 57.4002 84.149 57.8176 84.149C58.1515 84.149 58.395 84.205 58.5481 84.3168C58.7151 84.4286 58.8612 84.5404 58.9864 84.6523C59.1116 84.7641 59.2647 84.82 59.4456 84.82C59.7378 84.82 59.8839 84.7152 59.8839 84.5055C59.8839 84.2259 59.7169 84.0232 59.383 83.8974C59.0629 83.7716 58.6594 83.5969 58.1724 83.3733C57.5045 83.0518 57.0245 82.6814 56.7323 82.262C56.4401 81.8287 56.2939 81.3884 56.2939 80.9411C56.2939 80.4099 56.4818 79.9067 56.8575 79.4314C57.2332 78.9562 57.7619 78.5648 58.4437 78.2573C59.1395 77.9498 59.9674 77.796 60.9275 77.796C61.7345 77.796 62.4581 77.9078 63.0981 78.1315C63.7382 78.3551 64.2461 78.6627 64.6218 79.054C64.9975 79.4314 65.1853 79.8508 65.1853 80.3121C65.1853 80.7454 65.0462 81.0739 64.7679 81.2975C64.4896 81.5212 64.1278 81.633 63.6825 81.633C63.4321 81.633 63.2303 81.5981 63.0773 81.5282C62.9381 81.4443 62.8059 81.3674 62.6807 81.2975C62.5694 81.2276 62.4094 81.1927 62.2006 81.1927C62.0893 81.1927 61.9919 81.2346 61.9084 81.3185C61.825 81.3884 61.7832 81.4792 61.7832 81.5911C61.7832 81.6749 61.818 81.7588 61.8876 81.8427C61.9571 81.9265 62.0754 81.9964 62.2424 82.0523C62.6737 82.1921 63.0912 82.3738 63.4947 82.5975C63.9121 82.8072 64.253 83.0867 64.5174 83.4362C64.7957 83.7716 64.9348 84.205 64.9348 84.7361C64.9348 85.6447 64.5105 86.3576 63.6617 86.8748C62.8129 87.392 61.6928 87.6506 60.3013 87.6506Z"/>
<path d="M77.2643 87.6296C76.6242 87.6296 76.0537 87.3989 75.5528 86.9377C75.0658 86.4624 74.6831 85.7076 74.4049 84.6732C74.1405 83.6389 74.0083 82.29 74.0083 80.6266C74.0083 79.4943 74.1892 78.46 74.551 77.5234C74.9127 76.5869 75.4137 75.7832 76.0537 75.1122C76.6938 74.4273 77.4382 73.9031 78.287 73.5397C79.1358 73.1623 80.0402 72.9736 81.0003 72.9736C82.6144 72.9736 83.825 73.2531 84.632 73.8123C85.453 74.3574 85.8634 75.1122 85.8634 76.0767C85.8634 76.8036 85.6895 77.3417 85.3417 77.6912C85.0077 78.0267 84.5277 78.2503 83.9015 78.3621C83.2893 78.4739 82.5657 78.5299 81.7308 78.5299C81.2577 78.5299 80.8055 78.5998 80.3742 78.7395C79.9428 78.8653 79.588 79.061 79.3097 79.3266C79.0453 79.5782 78.8923 79.8927 78.8505 80.2701C78.8505 80.34 78.8436 80.4029 78.8297 80.4588C79.0801 80.4449 79.3306 80.4379 79.5811 80.4379C79.8315 80.4379 80.082 80.4379 80.3324 80.4379C80.9447 80.4379 81.543 80.4449 82.1274 80.4588C82.7257 80.4588 83.2684 80.5078 83.7554 80.6056C84.2424 80.6895 84.632 80.8572 84.9242 81.1088C85.2164 81.3604 85.3625 81.7308 85.3625 82.2201C85.3625 82.7512 85.2164 83.1496 84.9242 83.4152C84.632 83.6668 84.2424 83.8345 83.7554 83.9184C83.2684 84.0023 82.7257 84.0442 82.1274 84.0442C81.543 84.0302 80.9447 84.0232 80.3324 84.0232C80.1098 84.0232 79.8872 84.0302 79.6645 84.0442C79.4558 84.0442 79.2401 84.0442 79.0175 84.0442C79.0453 84.2399 79.0662 84.4426 79.0801 84.6523C79.094 84.8619 79.101 85.0786 79.101 85.3022C79.101 85.6936 79.0453 86.071 78.934 86.4345C78.8366 86.7839 78.6557 87.0705 78.3914 87.2941C78.127 87.5178 77.7513 87.6296 77.2643 87.6296Z"/>
<path d="M107.692 87.6506C107.135 87.6506 106.739 87.4968 106.502 87.1893C106.28 86.8678 106.147 86.4694 106.106 85.9942C106.064 85.5049 106.043 85.0157 106.043 84.5265C106.043 83.7856 105.939 83.1915 105.73 82.7442C105.521 82.283 105.153 82.0523 104.624 82.0523C104.151 82.0523 103.803 82.283 103.58 82.7442C103.358 83.1915 103.246 83.7856 103.246 84.5265C103.246 85.0157 103.225 85.4979 103.184 85.9732C103.156 86.4484 103.031 86.8468 102.808 87.1683C102.585 87.4758 102.182 87.6296 101.597 87.6296C101.166 87.6296 100.804 87.4688 100.512 87.1473C100.234 86.8259 100.018 86.4065 99.8651 85.8893C99.712 85.3721 99.6007 84.813 99.5311 84.212C99.4755 83.6109 99.4476 83.0308 99.4476 82.4717C99.4476 81.9126 99.4755 81.3395 99.5311 80.7524C99.5868 80.1653 99.6842 79.6202 99.8233 79.1169C99.9764 78.6137 100.192 78.2084 100.47 77.9008C100.749 77.5933 101.11 77.4396 101.556 77.4396C102.349 77.4396 102.843 77.803 103.038 78.5299C103.205 78.3481 103.469 78.1804 103.831 78.0267C104.206 77.8589 104.631 77.775 105.104 77.775C106.175 77.775 107.052 78.0476 107.734 78.5928C108.416 79.1379 108.909 79.8927 109.216 80.8572C109.536 81.8077 109.689 82.912 109.675 84.17C109.675 84.813 109.612 85.4001 109.487 85.9313C109.376 86.4484 109.174 86.8678 108.882 87.1893C108.603 87.4968 108.207 87.6506 107.692 87.6506Z"/>
<path d="M124.852 87.6506C124.157 87.6506 123.454 87.6296 122.744 87.5877C122.048 87.5317 121.408 87.4059 120.824 87.2103C120.253 87.0006 119.794 86.6791 119.446 86.2458C119.099 85.8124 118.925 85.2184 118.925 84.4636C118.925 83.9743 119.099 83.4781 119.446 82.9749C119.794 82.4577 120.233 81.9545 120.761 81.4653C121.304 80.9621 121.881 80.4868 122.494 80.0395C123.106 79.5922 123.669 79.1868 124.184 78.8234C123.628 78.8793 123.022 78.8933 122.368 78.8653C121.715 78.8374 121.095 78.7325 120.511 78.5508C119.926 78.3691 119.446 78.0896 119.071 77.7121C118.695 77.3347 118.507 76.8315 118.507 76.2025C118.507 75.4337 118.751 74.8187 119.238 74.3574C119.725 73.8961 120.379 73.5607 121.2 73.351C122.035 73.1413 122.953 73.0365 123.955 73.0365C124.859 73.0365 125.729 73.0854 126.564 73.1832C127.412 73.2671 128.171 73.4418 128.839 73.7074C129.507 73.959 130.035 74.3434 130.425 74.8606C130.829 75.3638 131.03 76.0348 131.03 76.8735C131.03 77.5025 130.884 78.0965 130.592 78.6557C130.314 79.2148 129.938 79.739 129.465 80.2282C128.992 80.7174 128.463 81.1717 127.879 81.5911C127.308 81.9964 126.731 82.3668 126.146 82.7023C126.772 82.7163 127.378 82.7512 127.962 82.8072C128.547 82.8631 129.061 82.9749 129.507 83.1426C129.966 83.2964 130.328 83.534 130.592 83.8555C130.856 84.177 130.989 84.6103 130.989 85.1555C130.989 85.7845 130.787 86.2737 130.383 86.6232C129.994 86.9586 129.486 87.2033 128.86 87.357C128.233 87.4968 127.566 87.5807 126.856 87.6086C126.146 87.6366 125.478 87.6506 124.852 87.6506Z"/>
<path d="M160.937 87.6506C159.893 87.6506 158.975 87.4479 158.182 87.0425C157.403 86.6232 156.79 86.0571 156.345 85.3442C155.914 84.6173 155.698 83.7856 155.698 82.8491C155.698 81.9405 155.914 81.1018 156.345 80.333C156.79 79.5642 157.396 78.9492 158.161 78.4879C158.94 78.0267 159.831 77.796 160.833 77.796C161.765 77.796 162.565 77.9847 163.233 78.3621C163.901 78.7395 164.409 79.2218 164.756 79.8089C165.118 80.382 165.299 80.99 165.299 81.633C165.299 82.276 165.153 82.8072 164.861 83.2265C164.569 83.6319 164.186 83.9464 163.713 84.17C163.254 84.3797 162.76 84.5195 162.231 84.5894C161.702 84.6592 161.194 84.6732 160.707 84.6313C160.22 84.5754 159.81 84.4915 159.476 84.3797C159.726 84.7851 160.039 85.0646 160.415 85.2184C160.805 85.3582 161.208 85.4211 161.626 85.4071C162.057 85.3791 162.447 85.3302 162.794 85.2603C163.226 85.1625 163.581 85.1834 163.859 85.3232C164.137 85.463 164.283 85.6866 164.297 85.9942C164.311 86.2458 164.221 86.4974 164.026 86.749C163.845 87.0006 163.511 87.2172 163.024 87.399C162.537 87.5667 161.841 87.6506 160.937 87.6506ZM159.538 81.8217C159.678 82.0453 159.879 82.2061 160.144 82.3039C160.408 82.3878 160.672 82.4158 160.937 82.3878C161.215 82.3599 161.445 82.283 161.626 82.1572C161.82 82.0314 161.918 81.8566 161.918 81.633C161.918 81.3954 161.82 81.1857 161.626 81.004C161.445 80.8083 161.153 80.7104 160.749 80.7104C160.359 80.7104 160.06 80.8362 159.852 81.0879C159.643 81.3255 159.538 81.5701 159.538 81.8217Z"/>
<path d="M42.8733 75.0703C42.8733 76.6143 41.6273 77.8659 40.0904 77.8659C38.5534 77.8659 37.3075 76.6143 37.3075 75.0703C37.3075 73.5263 38.5534 72.2747 40.0904 72.2747C41.6273 72.2747 42.8733 73.5263 42.8733 75.0703Z"/>
<path d="M91.9219 74.7208C91.9219 75.8788 90.9874 76.8176 89.8347 76.8176C88.682 76.8176 87.7475 75.8788 87.7475 74.7208C87.7475 73.5629 88.682 72.6241 89.8347 72.6241C90.9874 72.6241 91.9219 73.5629 91.9219 74.7208Z"/>
<path d="M140.275 74.0219C140.275 75.5659 139.029 76.8176 137.492 76.8176C135.955 76.8176 134.709 75.5659 134.709 74.0219C134.709 72.478 135.955 71.2263 137.492 71.2263C139.029 71.2263 140.275 72.478 140.275 74.0219Z"/>
<path d="M97.8355 74.0219C97.8355 75.1799 96.901 76.1186 95.7483 76.1186C94.5956 76.1186 93.6612 75.1799 93.6612 74.0219C93.6612 72.864 94.5956 71.9252 95.7483 71.9252C96.901 71.9252 97.8355 72.864 97.8355 74.0219Z"/>
<path d="M37.803 79.9664C37.93 78.9258 38.8655 78.2154 39.9091 78.2154C41.0257 78.2154 41.9878 79.0363 42.1528 80.1456C42.1693 80.2564 42.1775 80.3683 42.1775 80.4803V83.1077C42.1775 83.1077 42.1775 84.156 42.1775 85.5538C42.1775 85.8055 42.1674 86.0459 42.1508 86.2708C42.0743 87.3098 41.1551 88 40.118 88C38.9678 88 37.9784 87.1629 37.8526 86.0144C37.6073 83.7736 37.5907 81.7058 37.803 79.9664Z"/>
<path d="M137.433 87.6715C136.404 87.6854 135.499 87.4758 134.72 87.0425C133.955 86.5952 133.349 85.9941 132.904 85.2393C132.473 84.4705 132.243 83.6248 132.215 82.7023C132.201 81.7517 132.417 80.9131 132.862 80.1862C133.308 79.4454 133.927 78.8583 134.72 78.425C135.513 77.9916 136.417 77.775 137.433 77.775C138.435 77.761 139.319 77.9707 140.084 78.404C140.863 78.8373 141.482 79.4244 141.942 80.1652C142.401 80.9061 142.644 81.7517 142.672 82.7023C142.686 83.6108 142.47 84.4425 142.025 85.1974C141.58 85.9382 140.961 86.5323 140.167 86.9796C139.374 87.4129 138.463 87.6435 137.433 87.6715ZM137.496 84.6103C137.872 84.6103 138.199 84.4635 138.477 84.17C138.755 83.8764 138.894 83.534 138.894 83.1426C138.894 82.7512 138.755 82.4157 138.477 82.1362C138.199 81.8426 137.872 81.6958 137.496 81.6958C137.12 81.6958 136.793 81.8426 136.515 82.1362C136.237 82.4157 136.097 82.7512 136.097 83.1426C136.097 83.534 136.237 83.8764 136.515 84.17C136.793 84.4635 137.12 84.6103 137.496 84.6103Z"/>
<path d="M152.313 87.6505C151.757 87.6505 151.36 87.4967 151.123 87.1892C150.901 86.8677 150.769 86.4694 150.727 85.9941C150.685 85.5049 150.664 85.0156 150.664 84.5264C150.664 83.7856 150.56 83.1915 150.351 82.7442C150.142 82.2829 149.774 82.0523 149.245 82.0523C148.772 82.0523 148.424 82.2829 148.201 82.7442C147.979 83.1915 147.867 83.7856 147.867 84.5264C147.867 85.0156 147.847 85.4979 147.805 85.9731C147.777 86.4484 147.652 86.8468 147.429 87.1683C147.206 87.4758 146.803 87.6295 146.219 87.6295C145.787 87.6295 145.425 87.4688 145.133 87.1473C144.855 86.8258 144.639 86.4065 144.486 85.8893C144.333 85.3721 144.222 84.813 144.152 84.2119C144.097 83.6108 144.069 83.0307 144.069 82.4716C144.069 81.9125 144.097 81.3394 144.152 80.7523C144.208 80.1652 144.305 79.6201 144.444 79.1169C144.597 78.6137 144.813 78.2083 145.091 77.9008C145.37 77.5933 145.732 77.4395 146.177 77.4395C146.97 77.4395 147.464 77.8029 147.659 78.5298C147.826 78.3481 148.09 78.1804 148.452 78.0266C148.827 77.8589 149.252 77.775 149.725 77.775C150.796 77.775 151.673 78.0476 152.355 78.5927C153.037 79.1379 153.531 79.8927 153.837 80.8572C154.157 81.8077 154.31 82.9119 154.296 84.17C154.296 84.8129 154.233 85.4 154.108 85.9312C153.997 86.4484 153.795 86.8677 153.503 87.1892C153.224 87.4967 152.828 87.6505 152.313 87.6505Z"/>
</mask>
<path d="M25.9045 87.6506C25.3201 87.6506 24.8679 87.4828 24.5479 87.1473C24.2278 86.7979 23.9982 86.3436 23.8591 85.7845C23.72 85.2114 23.6365 84.5824 23.6086 83.8974C23.5808 83.2125 23.5669 82.5276 23.5669 81.8427C23.5669 81.5072 23.5669 81.0739 23.5669 80.5427C23.5808 79.9976 23.5878 79.4454 23.5878 78.8863C23.6017 78.3132 23.6156 77.81 23.6295 77.3767C23.6434 76.9294 23.6573 76.6219 23.6713 76.4541C23.6991 75.4477 23.9078 74.616 24.2974 73.959C24.687 73.3021 25.2645 72.9736 26.0298 72.9736C26.9064 72.9736 27.5047 73.358 27.8247 74.1268C28.1587 74.8816 28.3257 75.9719 28.3257 77.3976C28.3257 77.5514 28.3257 77.7611 28.3257 78.0267C28.59 77.5374 28.9101 77.0063 29.2858 76.4331C29.6754 75.86 30.0997 75.3149 30.5589 74.7977C31.0181 74.2805 31.5051 73.8612 32.0199 73.5397C32.5348 73.2042 33.0566 73.0365 33.5853 73.0365C34.2393 73.0365 34.775 73.2881 35.1925 73.7913C35.6238 74.2805 35.8395 74.8886 35.8395 75.6154C35.8395 76.2724 35.6447 76.9154 35.2551 77.5444C34.8794 78.1594 34.3576 78.7186 33.6897 79.2218C33.0218 79.725 32.2426 80.1373 31.3521 80.4588C31.8669 80.6965 32.3887 80.983 32.9174 81.3185C33.4462 81.64 33.9262 82.0034 34.3576 82.4088C34.8028 82.8002 35.1577 83.2265 35.422 83.6878C35.6864 84.1491 35.8186 84.6453 35.8186 85.1764C35.8186 85.7635 35.7003 86.2388 35.4638 86.6022C35.2412 86.9656 34.9489 87.2312 34.5872 87.399C34.2254 87.5667 33.8428 87.6506 33.4392 87.6506C32.7296 87.6506 32.0686 87.4199 31.4564 86.9586C30.8442 86.4974 30.2737 85.8963 29.7449 85.1555C29.2301 84.4146 28.75 83.6389 28.3048 82.8281C28.3048 83.4432 28.277 84.0372 28.2213 84.6103C28.1795 85.1834 28.0821 85.7006 27.9291 86.1619C27.776 86.6232 27.5395 86.9866 27.2194 87.2522C26.8994 87.5178 26.4611 87.6506 25.9045 87.6506Z" fill="white"/>
<path d="M40.084 77.4815C39.4022 77.4815 38.8247 77.2369 38.3516 76.7477C37.8786 76.2444 37.642 75.6364 37.642 74.9235C37.642 74.4483 37.7464 74.0219 37.9551 73.6445C38.1777 73.2671 38.4699 72.9666 38.8317 72.7429C39.2074 72.5053 39.6248 72.3865 40.084 72.3865C40.5293 72.3865 40.9328 72.5053 41.2946 72.7429C41.6703 72.9666 41.9694 73.2671 42.192 73.6445C42.4147 74.0219 42.526 74.4483 42.526 74.9235C42.526 75.3988 42.4147 75.8321 42.192 76.2235C41.9694 76.6009 41.6703 76.9084 41.2946 77.146C40.9328 77.3697 40.5293 77.4815 40.084 77.4815ZM40.084 87.6506C39.5274 87.6506 39.11 87.4898 38.8317 87.1683C38.5673 86.8468 38.3864 86.3576 38.289 85.7006C38.2055 85.0297 38.1568 84.17 38.1429 83.1217C38.1429 82.0733 38.1847 81.2137 38.2682 80.5427C38.3656 79.8718 38.5534 79.3825 38.8317 79.075C39.11 78.7535 39.5274 78.5928 40.084 78.5928C40.6406 78.5928 41.0511 78.7535 41.3154 79.075C41.5937 79.3825 41.7816 79.8718 41.879 80.5427C41.9764 81.2137 42.0251 82.0733 42.0251 83.1217C42.039 84.17 41.9972 85.0297 41.8998 85.7006C41.8024 86.3576 41.6146 86.8468 41.3363 87.1683C41.058 87.4898 40.6406 87.6506 40.084 87.6506Z" fill="white"/>
<path d="M48.8985 87.6506C47.8688 87.6506 46.9782 87.4059 46.2269 86.9167C45.4894 86.4275 44.9189 85.7915 44.5154 85.0087C44.1258 84.2259 43.931 83.4082 43.931 82.5555C43.931 81.4653 44.1467 80.5707 44.578 79.8718C45.0233 79.1729 45.5868 78.6557 46.2686 78.3202C46.9504 77.9707 47.6601 77.796 48.3975 77.796C48.7454 77.796 49.1002 77.838 49.462 77.9218C49.8238 77.9917 50.1647 78.1175 50.4847 78.2992C50.429 77.6982 50.3038 77.1111 50.109 76.538C49.9281 75.9509 49.8377 75.3568 49.8377 74.7558C49.8377 74.1407 50.0255 73.6865 50.4012 73.3929C50.7769 73.0994 51.1804 72.9526 51.6118 72.9526C52.1127 72.9526 52.544 73.1134 52.9058 73.4349C53.2676 73.7563 53.5737 74.1827 53.8242 74.7138C54.0886 75.245 54.2973 75.8461 54.4503 76.517C54.6034 77.174 54.7147 77.8519 54.7843 78.5508C54.8539 79.2497 54.8886 79.9207 54.8886 80.5637C54.8886 80.7734 54.8747 81.0948 54.8469 81.5282C54.833 81.9615 54.7704 82.4437 54.659 82.9749C54.5477 83.5061 54.3668 84.0442 54.1164 84.5894C53.8798 85.1345 53.5389 85.6377 53.0937 86.099C52.6623 86.5603 52.1057 86.9377 51.4239 87.2312C50.7421 87.5108 49.9003 87.6506 48.8985 87.6506ZM49.0237 84.3378C49.3994 84.3378 49.7264 84.198 50.0047 83.9184C50.2829 83.6249 50.4221 83.2824 50.4221 82.891C50.4221 82.4996 50.2829 82.1572 50.0047 81.8636C49.7264 81.5701 49.3994 81.4233 49.0237 81.4233C48.648 81.4233 48.314 81.5701 48.0218 81.8636C47.7435 82.1572 47.6044 82.4996 47.6044 82.891C47.6044 83.2824 47.7435 83.6249 48.0218 83.9184C48.314 84.198 48.648 84.3378 49.0237 84.3378Z" fill="white"/>
<path d="M60.3013 87.6506C59.0768 87.6506 58.1028 87.4479 57.3793 87.0425C56.6557 86.6371 56.2939 86.113 56.2939 85.47C56.2939 85.0227 56.4401 84.6942 56.7323 84.4845C57.0384 84.2609 57.4002 84.149 57.8176 84.149C58.1515 84.149 58.395 84.205 58.5481 84.3168C58.7151 84.4286 58.8612 84.5404 58.9864 84.6523C59.1116 84.7641 59.2647 84.82 59.4456 84.82C59.7378 84.82 59.8839 84.7152 59.8839 84.5055C59.8839 84.2259 59.7169 84.0232 59.383 83.8974C59.0629 83.7716 58.6594 83.5969 58.1724 83.3733C57.5045 83.0518 57.0245 82.6814 56.7323 82.262C56.4401 81.8287 56.2939 81.3884 56.2939 80.9411C56.2939 80.4099 56.4818 79.9067 56.8575 79.4314C57.2332 78.9562 57.7619 78.5648 58.4437 78.2573C59.1395 77.9498 59.9674 77.796 60.9275 77.796C61.7345 77.796 62.4581 77.9078 63.0981 78.1315C63.7382 78.3551 64.2461 78.6627 64.6218 79.054C64.9975 79.4314 65.1853 79.8508 65.1853 80.3121C65.1853 80.7454 65.0462 81.0739 64.7679 81.2975C64.4896 81.5212 64.1278 81.633 63.6825 81.633C63.4321 81.633 63.2303 81.5981 63.0773 81.5282C62.9381 81.4443 62.8059 81.3674 62.6807 81.2975C62.5694 81.2276 62.4094 81.1927 62.2006 81.1927C62.0893 81.1927 61.9919 81.2346 61.9084 81.3185C61.825 81.3884 61.7832 81.4792 61.7832 81.5911C61.7832 81.6749 61.818 81.7588 61.8876 81.8427C61.9571 81.9265 62.0754 81.9964 62.2424 82.0523C62.6737 82.1921 63.0912 82.3738 63.4947 82.5975C63.9121 82.8072 64.253 83.0867 64.5174 83.4362C64.7957 83.7716 64.9348 84.205 64.9348 84.7361C64.9348 85.6447 64.5105 86.3576 63.6617 86.8748C62.8129 87.392 61.6928 87.6506 60.3013 87.6506Z" fill="white"/>
<path d="M77.2643 87.6296C76.6242 87.6296 76.0537 87.3989 75.5528 86.9377C75.0658 86.4624 74.6831 85.7076 74.4049 84.6732C74.1405 83.6389 74.0083 82.29 74.0083 80.6266C74.0083 79.4943 74.1892 78.46 74.551 77.5234C74.9127 76.5869 75.4137 75.7832 76.0537 75.1122C76.6938 74.4273 77.4382 73.9031 78.287 73.5397C79.1358 73.1623 80.0402 72.9736 81.0003 72.9736C82.6144 72.9736 83.825 73.2531 84.632 73.8123C85.453 74.3574 85.8634 75.1122 85.8634 76.0767C85.8634 76.8036 85.6895 77.3417 85.3417 77.6912C85.0077 78.0267 84.5277 78.2503 83.9015 78.3621C83.2893 78.4739 82.5657 78.5299 81.7308 78.5299C81.2577 78.5299 80.8055 78.5998 80.3742 78.7395C79.9428 78.8653 79.588 79.061 79.3097 79.3266C79.0453 79.5782 78.8923 79.8927 78.8505 80.2701C78.8505 80.34 78.8436 80.4029 78.8297 80.4588C79.0801 80.4449 79.3306 80.4379 79.5811 80.4379C79.8315 80.4379 80.082 80.4379 80.3324 80.4379C80.9447 80.4379 81.543 80.4449 82.1274 80.4588C82.7257 80.4588 83.2684 80.5078 83.7554 80.6056C84.2424 80.6895 84.632 80.8572 84.9242 81.1088C85.2164 81.3604 85.3625 81.7308 85.3625 82.2201C85.3625 82.7512 85.2164 83.1496 84.9242 83.4152C84.632 83.6668 84.2424 83.8345 83.7554 83.9184C83.2684 84.0023 82.7257 84.0442 82.1274 84.0442C81.543 84.0302 80.9447 84.0232 80.3324 84.0232C80.1098 84.0232 79.8872 84.0302 79.6645 84.0442C79.4558 84.0442 79.2401 84.0442 79.0175 84.0442C79.0453 84.2399 79.0662 84.4426 79.0801 84.6523C79.094 84.8619 79.101 85.0786 79.101 85.3022C79.101 85.6936 79.0453 86.071 78.934 86.4345C78.8366 86.7839 78.6557 87.0705 78.3914 87.2941C78.127 87.5178 77.7513 87.6296 77.2643 87.6296Z" fill="white"/>
<path d="M107.692 87.6506C107.135 87.6506 106.739 87.4968 106.502 87.1893C106.28 86.8678 106.147 86.4694 106.106 85.9942C106.064 85.5049 106.043 85.0157 106.043 84.5265C106.043 83.7856 105.939 83.1915 105.73 82.7442C105.521 82.283 105.153 82.0523 104.624 82.0523C104.151 82.0523 103.803 82.283 103.58 82.7442C103.358 83.1915 103.246 83.7856 103.246 84.5265C103.246 85.0157 103.225 85.4979 103.184 85.9732C103.156 86.4484 103.031 86.8468 102.808 87.1683C102.585 87.4758 102.182 87.6296 101.597 87.6296C101.166 87.6296 100.804 87.4688 100.512 87.1473C100.234 86.8259 100.018 86.4065 99.8651 85.8893C99.712 85.3721 99.6007 84.813 99.5311 84.212C99.4755 83.6109 99.4476 83.0308 99.4476 82.4717C99.4476 81.9126 99.4755 81.3395 99.5311 80.7524C99.5868 80.1653 99.6842 79.6202 99.8233 79.1169C99.9764 78.6137 100.192 78.2084 100.47 77.9008C100.749 77.5933 101.11 77.4396 101.556 77.4396C102.349 77.4396 102.843 77.803 103.038 78.5299C103.205 78.3481 103.469 78.1804 103.831 78.0267C104.206 77.8589 104.631 77.775 105.104 77.775C106.175 77.775 107.052 78.0476 107.734 78.5928C108.416 79.1379 108.909 79.8927 109.216 80.8572C109.536 81.8077 109.689 82.912 109.675 84.17C109.675 84.813 109.612 85.4001 109.487 85.9313C109.376 86.4484 109.174 86.8678 108.882 87.1893C108.603 87.4968 108.207 87.6506 107.692 87.6506Z" fill="white"/>
<path d="M124.852 87.6506C124.157 87.6506 123.454 87.6296 122.744 87.5877C122.048 87.5317 121.408 87.4059 120.824 87.2103C120.253 87.0006 119.794 86.6791 119.446 86.2458C119.099 85.8124 118.925 85.2184 118.925 84.4636C118.925 83.9743 119.099 83.4781 119.446 82.9749C119.794 82.4577 120.233 81.9545 120.761 81.4653C121.304 80.9621 121.881 80.4868 122.494 80.0395C123.106 79.5922 123.669 79.1868 124.184 78.8234C123.628 78.8793 123.022 78.8933 122.368 78.8653C121.715 78.8374 121.095 78.7325 120.511 78.5508C119.926 78.3691 119.446 78.0896 119.071 77.7121C118.695 77.3347 118.507 76.8315 118.507 76.2025C118.507 75.4337 118.751 74.8187 119.238 74.3574C119.725 73.8961 120.379 73.5607 121.2 73.351C122.035 73.1413 122.953 73.0365 123.955 73.0365C124.859 73.0365 125.729 73.0854 126.564 73.1832C127.412 73.2671 128.171 73.4418 128.839 73.7074C129.507 73.959 130.035 74.3434 130.425 74.8606C130.829 75.3638 131.03 76.0348 131.03 76.8735C131.03 77.5025 130.884 78.0965 130.592 78.6557C130.314 79.2148 129.938 79.739 129.465 80.2282C128.992 80.7174 128.463 81.1717 127.879 81.5911C127.308 81.9964 126.731 82.3668 126.146 82.7023C126.772 82.7163 127.378 82.7512 127.962 82.8072C128.547 82.8631 129.061 82.9749 129.507 83.1426C129.966 83.2964 130.328 83.534 130.592 83.8555C130.856 84.177 130.989 84.6103 130.989 85.1555C130.989 85.7845 130.787 86.2737 130.383 86.6232C129.994 86.9586 129.486 87.2033 128.86 87.357C128.233 87.4968 127.566 87.5807 126.856 87.6086C126.146 87.6366 125.478 87.6506 124.852 87.6506Z" fill="white"/>
<path d="M160.937 87.6506C159.893 87.6506 158.975 87.4479 158.182 87.0425C157.403 86.6232 156.79 86.0571 156.345 85.3442C155.914 84.6173 155.698 83.7856 155.698 82.8491C155.698 81.9405 155.914 81.1018 156.345 80.333C156.79 79.5642 157.396 78.9492 158.161 78.4879C158.94 78.0267 159.831 77.796 160.833 77.796C161.765 77.796 162.565 77.9847 163.233 78.3621C163.901 78.7395 164.409 79.2218 164.756 79.8089C165.118 80.382 165.299 80.99 165.299 81.633C165.299 82.276 165.153 82.8072 164.861 83.2265C164.569 83.6319 164.186 83.9464 163.713 84.17C163.254 84.3797 162.76 84.5195 162.231 84.5894C161.702 84.6592 161.194 84.6732 160.707 84.6313C160.22 84.5754 159.81 84.4915 159.476 84.3797C159.726 84.7851 160.039 85.0646 160.415 85.2184C160.805 85.3582 161.208 85.4211 161.626 85.4071C162.057 85.3791 162.447 85.3302 162.794 85.2603C163.226 85.1625 163.581 85.1834 163.859 85.3232C164.137 85.463 164.283 85.6866 164.297 85.9942C164.311 86.2458 164.221 86.4974 164.026 86.749C163.845 87.0006 163.511 87.2172 163.024 87.399C162.537 87.5667 161.841 87.6506 160.937 87.6506ZM159.538 81.8217C159.678 82.0453 159.879 82.2061 160.144 82.3039C160.408 82.3878 160.672 82.4158 160.937 82.3878C161.215 82.3599 161.445 82.283 161.626 82.1572C161.82 82.0314 161.918 81.8566 161.918 81.633C161.918 81.3954 161.82 81.1857 161.626 81.004C161.445 80.8083 161.153 80.7104 160.749 80.7104C160.359 80.7104 160.06 80.8362 159.852 81.0879C159.643 81.3255 159.538 81.5701 159.538 81.8217Z" fill="white"/>
<path d="M42.8733 75.0703C42.8733 76.6143 41.6273 77.8659 40.0904 77.8659C38.5534 77.8659 37.3075 76.6143 37.3075 75.0703C37.3075 73.5263 38.5534 72.2747 40.0904 72.2747C41.6273 72.2747 42.8733 73.5263 42.8733 75.0703Z" fill="#FF4081"/>
<path d="M91.9219 74.7208C91.9219 75.8788 90.9874 76.8176 89.8347 76.8176C88.682 76.8176 87.7475 75.8788 87.7475 74.7208C87.7475 73.5629 88.682 72.6241 89.8347 72.6241C90.9874 72.6241 91.9219 73.5629 91.9219 74.7208Z" fill="#1877F2"/>
<path d="M140.275 74.0219C140.275 75.5659 139.029 76.8176 137.492 76.8176C135.955 76.8176 134.709 75.5659 134.709 74.0219C134.709 72.478 135.955 71.2263 137.492 71.2263C139.029 71.2263 140.275 72.478 140.275 74.0219Z" fill="#50E3C2"/>
<path d="M97.8355 74.0219C97.8355 75.1799 96.901 76.1186 95.7483 76.1186C94.5956 76.1186 93.6612 75.1799 93.6612 74.0219C93.6612 72.864 94.5956 71.9252 95.7483 71.9252C96.901 71.9252 97.8355 72.864 97.8355 74.0219Z" fill="#1877F2"/>
<path d="M37.803 79.9664C37.93 78.9258 38.8655 78.2154 39.9091 78.2154C41.0257 78.2154 41.9878 79.0363 42.1528 80.1456C42.1693 80.2564 42.1775 80.3683 42.1775 80.4803V83.1077C42.1775 83.1077 42.1775 84.156 42.1775 85.5538C42.1775 85.8055 42.1674 86.0459 42.1508 86.2708C42.0743 87.3098 41.1551 88 40.118 88C38.9678 88 37.9784 87.1629 37.8526 86.0144C37.6073 83.7736 37.5907 81.7058 37.803 79.9664Z" fill="#50E3C2"/>
<path d="M137.433 87.6715C136.404 87.6854 135.499 87.4758 134.72 87.0425C133.955 86.5952 133.349 85.9941 132.904 85.2393C132.473 84.4705 132.243 83.6248 132.215 82.7023C132.201 81.7517 132.417 80.9131 132.862 80.1862C133.308 79.4454 133.927 78.8583 134.72 78.425C135.513 77.9916 136.417 77.775 137.433 77.775C138.435 77.761 139.319 77.9707 140.084 78.404C140.863 78.8373 141.482 79.4244 141.942 80.1652C142.401 80.9061 142.644 81.7517 142.672 82.7023C142.686 83.6108 142.47 84.4425 142.025 85.1974C141.58 85.9382 140.961 86.5323 140.167 86.9796C139.374 87.4129 138.463 87.6435 137.433 87.6715ZM137.496 84.6103C137.872 84.6103 138.199 84.4635 138.477 84.17C138.755 83.8764 138.894 83.534 138.894 83.1426C138.894 82.7512 138.755 82.4157 138.477 82.1362C138.199 81.8426 137.872 81.6958 137.496 81.6958C137.12 81.6958 136.793 81.8426 136.515 82.1362C136.237 82.4157 136.097 82.7512 136.097 83.1426C136.097 83.534 136.237 83.8764 136.515 84.17C136.793 84.4635 137.12 84.6103 137.496 84.6103Z" fill="#50E3C2"/>
<path d="M152.313 87.6505C151.757 87.6505 151.36 87.4967 151.123 87.1892C150.901 86.8677 150.769 86.4694 150.727 85.9941C150.685 85.5049 150.664 85.0156 150.664 84.5264C150.664 83.7856 150.56 83.1915 150.351 82.7442C150.142 82.2829 149.774 82.0523 149.245 82.0523C148.772 82.0523 148.424 82.2829 148.201 82.7442C147.979 83.1915 147.867 83.7856 147.867 84.5264C147.867 85.0156 147.847 85.4979 147.805 85.9731C147.777 86.4484 147.652 86.8468 147.429 87.1683C147.206 87.4758 146.803 87.6295 146.219 87.6295C145.787 87.6295 145.425 87.4688 145.133 87.1473C144.855 86.8258 144.639 86.4065 144.486 85.8893C144.333 85.3721 144.222 84.813 144.152 84.2119C144.097 83.6108 144.069 83.0307 144.069 82.4716C144.069 81.9125 144.097 81.3394 144.152 80.7523C144.208 80.1652 144.305 79.6201 144.444 79.1169C144.597 78.6137 144.813 78.2083 145.091 77.9008C145.37 77.5933 145.732 77.4395 146.177 77.4395C146.97 77.4395 147.464 77.8029 147.659 78.5298C147.826 78.3481 148.09 78.1804 148.452 78.0266C148.827 77.8589 149.252 77.775 149.725 77.775C150.796 77.775 151.673 78.0476 152.355 78.5927C153.037 79.1379 153.531 79.8927 153.837 80.8572C154.157 81.8077 154.31 82.9119 154.296 84.17C154.296 84.8129 154.233 85.4 154.108 85.9312C153.997 86.4484 153.795 86.8677 153.503 87.1892C153.224 87.4967 152.828 87.6505 152.313 87.6505Z" fill="#50E3C2"/>
<path d="M25.9045 87.6506C25.3201 87.6506 24.8679 87.4828 24.5479 87.1473C24.2278 86.7979 23.9982 86.3436 23.8591 85.7845C23.72 85.2114 23.6365 84.5824 23.6086 83.8974C23.5808 83.2125 23.5669 82.5276 23.5669 81.8427C23.5669 81.5072 23.5669 81.0739 23.5669 80.5427C23.5808 79.9976 23.5878 79.4454 23.5878 78.8863C23.6017 78.3132 23.6156 77.81 23.6295 77.3767C23.6434 76.9294 23.6573 76.6219 23.6713 76.4541C23.6991 75.4477 23.9078 74.616 24.2974 73.959C24.687 73.3021 25.2645 72.9736 26.0298 72.9736C26.9064 72.9736 27.5047 73.358 27.8247 74.1268C28.1587 74.8816 28.3257 75.9719 28.3257 77.3976C28.3257 77.5514 28.3257 77.7611 28.3257 78.0267C28.59 77.5374 28.9101 77.0063 29.2858 76.4331C29.6754 75.86 30.0997 75.3149 30.5589 74.7977C31.0181 74.2805 31.5051 73.8612 32.0199 73.5397C32.5348 73.2042 33.0566 73.0365 33.5853 73.0365C34.2393 73.0365 34.775 73.2881 35.1925 73.7913C35.6238 74.2805 35.8395 74.8886 35.8395 75.6154C35.8395 76.2724 35.6447 76.9154 35.2551 77.5444C34.8794 78.1594 34.3576 78.7186 33.6897 79.2218C33.0218 79.725 32.2426 80.1373 31.3521 80.4588C31.8669 80.6965 32.3887 80.983 32.9174 81.3185C33.4462 81.64 33.9262 82.0034 34.3576 82.4088C34.8028 82.8002 35.1577 83.2265 35.422 83.6878C35.6864 84.1491 35.8186 84.6453 35.8186 85.1764C35.8186 85.7635 35.7003 86.2388 35.4638 86.6022C35.2412 86.9656 34.9489 87.2312 34.5872 87.399C34.2254 87.5667 33.8428 87.6506 33.4392 87.6506C32.7296 87.6506 32.0686 87.4199 31.4564 86.9586C30.8442 86.4974 30.2737 85.8963 29.7449 85.1555C29.2301 84.4146 28.75 83.6389 28.3048 82.8281C28.3048 83.4432 28.277 84.0372 28.2213 84.6103C28.1795 85.1834 28.0821 85.7006 27.9291 86.1619C27.776 86.6232 27.5395 86.9866 27.2194 87.2522C26.8994 87.5178 26.4611 87.6506 25.9045 87.6506Z" stroke="#81A0B4" mask="url(#path-1-inside-1_366_728)"/>
<path d="M40.084 77.4815C39.4022 77.4815 38.8247 77.2369 38.3516 76.7477C37.8786 76.2444 37.642 75.6364 37.642 74.9235C37.642 74.4483 37.7464 74.0219 37.9551 73.6445C38.1777 73.2671 38.4699 72.9666 38.8317 72.7429C39.2074 72.5053 39.6248 72.3865 40.084 72.3865C40.5293 72.3865 40.9328 72.5053 41.2946 72.7429C41.6703 72.9666 41.9694 73.2671 42.192 73.6445C42.4147 74.0219 42.526 74.4483 42.526 74.9235C42.526 75.3988 42.4147 75.8321 42.192 76.2235C41.9694 76.6009 41.6703 76.9084 41.2946 77.146C40.9328 77.3697 40.5293 77.4815 40.084 77.4815ZM40.084 87.6506C39.5274 87.6506 39.11 87.4898 38.8317 87.1683C38.5673 86.8468 38.3864 86.3576 38.289 85.7006C38.2055 85.0297 38.1568 84.17 38.1429 83.1217C38.1429 82.0733 38.1847 81.2137 38.2682 80.5427C38.3656 79.8718 38.5534 79.3825 38.8317 79.075C39.11 78.7535 39.5274 78.5928 40.084 78.5928C40.6406 78.5928 41.0511 78.7535 41.3154 79.075C41.5937 79.3825 41.7816 79.8718 41.879 80.5427C41.9764 81.2137 42.0251 82.0733 42.0251 83.1217C42.039 84.17 41.9972 85.0297 41.8998 85.7006C41.8024 86.3576 41.6146 86.8468 41.3363 87.1683C41.058 87.4898 40.6406 87.6506 40.084 87.6506Z" stroke="#81A0B4" mask="url(#path-1-inside-1_366_728)"/>
<path d="M48.8985 87.6506C47.8688 87.6506 46.9782 87.4059 46.2269 86.9167C45.4894 86.4275 44.9189 85.7915 44.5154 85.0087C44.1258 84.2259 43.931 83.4082 43.931 82.5555C43.931 81.4653 44.1467 80.5707 44.578 79.8718C45.0233 79.1729 45.5868 78.6557 46.2686 78.3202C46.9504 77.9707 47.6601 77.796 48.3975 77.796C48.7454 77.796 49.1002 77.838 49.462 77.9218C49.8238 77.9917 50.1647 78.1175 50.4847 78.2992C50.429 77.6982 50.3038 77.1111 50.109 76.538C49.9281 75.9509 49.8377 75.3568 49.8377 74.7558C49.8377 74.1407 50.0255 73.6865 50.4012 73.3929C50.7769 73.0994 51.1804 72.9526 51.6118 72.9526C52.1127 72.9526 52.544 73.1134 52.9058 73.4349C53.2676 73.7563 53.5737 74.1827 53.8242 74.7138C54.0886 75.245 54.2973 75.8461 54.4503 76.517C54.6034 77.174 54.7147 77.8519 54.7843 78.5508C54.8539 79.2497 54.8886 79.9207 54.8886 80.5637C54.8886 80.7734 54.8747 81.0948 54.8469 81.5282C54.833 81.9615 54.7704 82.4437 54.659 82.9749C54.5477 83.5061 54.3668 84.0442 54.1164 84.5894C53.8798 85.1345 53.5389 85.6377 53.0937 86.099C52.6623 86.5603 52.1057 86.9377 51.4239 87.2312C50.7421 87.5108 49.9003 87.6506 48.8985 87.6506ZM49.0237 84.3378C49.3994 84.3378 49.7264 84.198 50.0047 83.9184C50.2829 83.6249 50.4221 83.2824 50.4221 82.891C50.4221 82.4996 50.2829 82.1572 50.0047 81.8636C49.7264 81.5701 49.3994 81.4233 49.0237 81.4233C48.648 81.4233 48.314 81.5701 48.0218 81.8636C47.7435 82.1572 47.6044 82.4996 47.6044 82.891C47.6044 83.2824 47.7435 83.6249 48.0218 83.9184C48.314 84.198 48.648 84.3378 49.0237 84.3378Z" stroke="#81A0B4" mask="url(#path-1-inside-1_366_728)"/>
<path d="M60.3013 87.6506C59.0768 87.6506 58.1028 87.4479 57.3793 87.0425C56.6557 86.6371 56.2939 86.113 56.2939 85.47C56.2939 85.0227 56.4401 84.6942 56.7323 84.4845C57.0384 84.2609 57.4002 84.149 57.8176 84.149C58.1515 84.149 58.395 84.205 58.5481 84.3168C58.7151 84.4286 58.8612 84.5404 58.9864 84.6523C59.1116 84.7641 59.2647 84.82 59.4456 84.82C59.7378 84.82 59.8839 84.7152 59.8839 84.5055C59.8839 84.2259 59.7169 84.0232 59.383 83.8974C59.0629 83.7716 58.6594 83.5969 58.1724 83.3733C57.5045 83.0518 57.0245 82.6814 56.7323 82.262C56.4401 81.8287 56.2939 81.3884 56.2939 80.9411C56.2939 80.4099 56.4818 79.9067 56.8575 79.4314C57.2332 78.9562 57.7619 78.5648 58.4437 78.2573C59.1395 77.9498 59.9674 77.796 60.9275 77.796C61.7345 77.796 62.4581 77.9078 63.0981 78.1315C63.7382 78.3551 64.2461 78.6627 64.6218 79.054C64.9975 79.4314 65.1853 79.8508 65.1853 80.3121C65.1853 80.7454 65.0462 81.0739 64.7679 81.2975C64.4896 81.5212 64.1278 81.633 63.6825 81.633C63.4321 81.633 63.2303 81.5981 63.0773 81.5282C62.9381 81.4443 62.8059 81.3674 62.6807 81.2975C62.5694 81.2276 62.4094 81.1927 62.2006 81.1927C62.0893 81.1927 61.9919 81.2346 61.9084 81.3185C61.825 81.3884 61.7832 81.4792 61.7832 81.5911C61.7832 81.6749 61.818 81.7588 61.8876 81.8427C61.9571 81.9265 62.0754 81.9964 62.2424 82.0523C62.6737 82.1921 63.0912 82.3738 63.4947 82.5975C63.9121 82.8072 64.253 83.0867 64.5174 83.4362C64.7957 83.7716 64.9348 84.205 64.9348 84.7361C64.9348 85.6447 64.5105 86.3576 63.6617 86.8748C62.8129 87.392 61.6928 87.6506 60.3013 87.6506Z" stroke="#81A0B4" mask="url(#path-1-inside-1_366_728)"/>
<path d="M77.2643 87.6296C76.6242 87.6296 76.0537 87.3989 75.5528 86.9377C75.0658 86.4624 74.6831 85.7076 74.4049 84.6732C74.1405 83.6389 74.0083 82.29 74.0083 80.6266C74.0083 79.4943 74.1892 78.46 74.551 77.5234C74.9127 76.5869 75.4137 75.7832 76.0537 75.1122C76.6938 74.4273 77.4382 73.9031 78.287 73.5397C79.1358 73.1623 80.0402 72.9736 81.0003 72.9736C82.6144 72.9736 83.825 73.2531 84.632 73.8123C85.453 74.3574 85.8634 75.1122 85.8634 76.0767C85.8634 76.8036 85.6895 77.3417 85.3417 77.6912C85.0077 78.0267 84.5277 78.2503 83.9015 78.3621C83.2893 78.4739 82.5657 78.5299 81.7308 78.5299C81.2577 78.5299 80.8055 78.5998 80.3742 78.7395C79.9428 78.8653 79.588 79.061 79.3097 79.3266C79.0453 79.5782 78.8923 79.8927 78.8505 80.2701C78.8505 80.34 78.8436 80.4029 78.8297 80.4588C79.0801 80.4449 79.3306 80.4379 79.5811 80.4379C79.8315 80.4379 80.082 80.4379 80.3324 80.4379C80.9447 80.4379 81.543 80.4449 82.1274 80.4588C82.7257 80.4588 83.2684 80.5078 83.7554 80.6056C84.2424 80.6895 84.632 80.8572 84.9242 81.1088C85.2164 81.3604 85.3625 81.7308 85.3625 82.2201C85.3625 82.7512 85.2164 83.1496 84.9242 83.4152C84.632 83.6668 84.2424 83.8345 83.7554 83.9184C83.2684 84.0023 82.7257 84.0442 82.1274 84.0442C81.543 84.0302 80.9447 84.0232 80.3324 84.0232C80.1098 84.0232 79.8872 84.0302 79.6645 84.0442C79.4558 84.0442 79.2401 84.0442 79.0175 84.0442C79.0453 84.2399 79.0662 84.4426 79.0801 84.6523C79.094 84.8619 79.101 85.0786 79.101 85.3022C79.101 85.6936 79.0453 86.071 78.934 86.4345C78.8366 86.7839 78.6557 87.0705 78.3914 87.2941C78.127 87.5178 77.7513 87.6296 77.2643 87.6296Z" stroke="#81A0B4" mask="url(#path-1-inside-1_366_728)"/>
<path d="M107.692 87.6506C107.135 87.6506 106.739 87.4968 106.502 87.1893C106.28 86.8678 106.147 86.4694 106.106 85.9942C106.064 85.5049 106.043 85.0157 106.043 84.5265C106.043 83.7856 105.939 83.1915 105.73 82.7442C105.521 82.283 105.153 82.0523 104.624 82.0523C104.151 82.0523 103.803 82.283 103.58 82.7442C103.358 83.1915 103.246 83.7856 103.246 84.5265C103.246 85.0157 103.225 85.4979 103.184 85.9732C103.156 86.4484 103.031 86.8468 102.808 87.1683C102.585 87.4758 102.182 87.6296 101.597 87.6296C101.166 87.6296 100.804 87.4688 100.512 87.1473C100.234 86.8259 100.018 86.4065 99.8651 85.8893C99.712 85.3721 99.6007 84.813 99.5311 84.212C99.4755 83.6109 99.4476 83.0308 99.4476 82.4717C99.4476 81.9126 99.4755 81.3395 99.5311 80.7524C99.5868 80.1653 99.6842 79.6202 99.8233 79.1169C99.9764 78.6137 100.192 78.2084 100.47 77.9008C100.749 77.5933 101.11 77.4396 101.556 77.4396C102.349 77.4396 102.843 77.803 103.038 78.5299C103.205 78.3481 103.469 78.1804 103.831 78.0267C104.206 77.8589 104.631 77.775 105.104 77.775C106.175 77.775 107.052 78.0476 107.734 78.5928C108.416 79.1379 108.909 79.8927 109.216 80.8572C109.536 81.8077 109.689 82.912 109.675 84.17C109.675 84.813 109.612 85.4001 109.487 85.9313C109.376 86.4484 109.174 86.8678 108.882 87.1893C108.603 87.4968 108.207 87.6506 107.692 87.6506Z" stroke="#81A0B4" mask="url(#path-1-inside-1_366_728)"/>
<path d="M124.852 87.6506C124.157 87.6506 123.454 87.6296 122.744 87.5877C122.048 87.5317 121.408 87.4059 120.824 87.2103C120.253 87.0006 119.794 86.6791 119.446 86.2458C119.099 85.8124 118.925 85.2184 118.925 84.4636C118.925 83.9743 119.099 83.4781 119.446 82.9749C119.794 82.4577 120.233 81.9545 120.761 81.4653C121.304 80.9621 121.881 80.4868 122.494 80.0395C123.106 79.5922 123.669 79.1868 124.184 78.8234C123.628 78.8793 123.022 78.8933 122.368 78.8653C121.715 78.8374 121.095 78.7325 120.511 78.5508C119.926 78.3691 119.446 78.0896 119.071 77.7121C118.695 77.3347 118.507 76.8315 118.507 76.2025C118.507 75.4337 118.751 74.8187 119.238 74.3574C119.725 73.8961 120.379 73.5607 121.2 73.351C122.035 73.1413 122.953 73.0365 123.955 73.0365C124.859 73.0365 125.729 73.0854 126.564 73.1832C127.412 73.2671 128.171 73.4418 128.839 73.7074C129.507 73.959 130.035 74.3434 130.425 74.8606C130.829 75.3638 131.03 76.0348 131.03 76.8735C131.03 77.5025 130.884 78.0965 130.592 78.6557C130.314 79.2148 129.938 79.739 129.465 80.2282C128.992 80.7174 128.463 81.1717 127.879 81.5911C127.308 81.9964 126.731 82.3668 126.146 82.7023C126.772 82.7163 127.378 82.7512 127.962 82.8072C128.547 82.8631 129.061 82.9749 129.507 83.1426C129.966 83.2964 130.328 83.534 130.592 83.8555C130.856 84.177 130.989 84.6103 130.989 85.1555C130.989 85.7845 130.787 86.2737 130.383 86.6232C129.994 86.9586 129.486 87.2033 128.86 87.357C128.233 87.4968 127.566 87.5807 126.856 87.6086C126.146 87.6366 125.478 87.6506 124.852 87.6506Z" stroke="#81A0B4" mask="url(#path-1-inside-1_366_728)"/>
<path d="M160.937 87.6506C159.893 87.6506 158.975 87.4479 158.182 87.0425C157.403 86.6232 156.79 86.0571 156.345 85.3442C155.914 84.6173 155.698 83.7856 155.698 82.8491C155.698 81.9405 155.914 81.1018 156.345 80.333C156.79 79.5642 157.396 78.9492 158.161 78.4879C158.94 78.0267 159.831 77.796 160.833 77.796C161.765 77.796 162.565 77.9847 163.233 78.3621C163.901 78.7395 164.409 79.2218 164.756 79.8089C165.118 80.382 165.299 80.99 165.299 81.633C165.299 82.276 165.153 82.8072 164.861 83.2265C164.569 83.6319 164.186 83.9464 163.713 84.17C163.254 84.3797 162.76 84.5195 162.231 84.5894C161.702 84.6592 161.194 84.6732 160.707 84.6313C160.22 84.5754 159.81 84.4915 159.476 84.3797C159.726 84.7851 160.039 85.0646 160.415 85.2184C160.805 85.3582 161.208 85.4211 161.626 85.4071C162.057 85.3791 162.447 85.3302 162.794 85.2603C163.226 85.1625 163.581 85.1834 163.859 85.3232C164.137 85.463 164.283 85.6866 164.297 85.9942C164.311 86.2458 164.221 86.4974 164.026 86.749C163.845 87.0006 163.511 87.2172 163.024 87.399C162.537 87.5667 161.841 87.6506 160.937 87.6506ZM159.538 81.8217C159.678 82.0453 159.879 82.2061 160.144 82.3039C160.408 82.3878 160.672 82.4158 160.937 82.3878C161.215 82.3599 161.445 82.283 161.626 82.1572C161.82 82.0314 161.918 81.8566 161.918 81.633C161.918 81.3954 161.82 81.1857 161.626 81.004C161.445 80.8083 161.153 80.7104 160.749 80.7104C160.359 80.7104 160.06 80.8362 159.852 81.0879C159.643 81.3255 159.538 81.5701 159.538 81.8217Z" stroke="#81A0B4" mask="url(#path-1-inside-1_366_728)"/>
<path d="M42.8733 75.0703C42.8733 76.6143 41.6273 77.8659 40.0904 77.8659C38.5534 77.8659 37.3075 76.6143 37.3075 75.0703C37.3075 73.5263 38.5534 72.2747 40.0904 72.2747C41.6273 72.2747 42.8733 73.5263 42.8733 75.0703Z" stroke="#81A0B4" mask="url(#path-1-inside-1_366_728)"/>
<path d="M91.9219 74.7208C91.9219 75.8788 90.9874 76.8176 89.8347 76.8176C88.682 76.8176 87.7475 75.8788 87.7475 74.7208C87.7475 73.5629 88.682 72.6241 89.8347 72.6241C90.9874 72.6241 91.9219 73.5629 91.9219 74.7208Z" stroke="#81A0B4" mask="url(#path-1-inside-1_366_728)"/>
<path d="M140.275 74.0219C140.275 75.5659 139.029 76.8176 137.492 76.8176C135.955 76.8176 134.709 75.5659 134.709 74.0219C134.709 72.478 135.955 71.2263 137.492 71.2263C139.029 71.2263 140.275 72.478 140.275 74.0219Z" stroke="#81A0B4" mask="url(#path-1-inside-1_366_728)"/>
<path d="M97.8355 74.0219C97.8355 75.1799 96.901 76.1186 95.7483 76.1186C94.5956 76.1186 93.6612 75.1799 93.6612 74.0219C93.6612 72.864 94.5956 71.9252 95.7483 71.9252C96.901 71.9252 97.8355 72.864 97.8355 74.0219Z" stroke="#81A0B4" mask="url(#path-1-inside-1_366_728)"/>
<path d="M37.803 79.9664C37.93 78.9258 38.8655 78.2154 39.9091 78.2154C41.0257 78.2154 41.9878 79.0363 42.1528 80.1456C42.1693 80.2564 42.1775 80.3683 42.1775 80.4803V83.1077C42.1775 83.1077 42.1775 84.156 42.1775 85.5538C42.1775 85.8055 42.1674 86.0459 42.1508 86.2708C42.0743 87.3098 41.1551 88 40.118 88C38.9678 88 37.9784 87.1629 37.8526 86.0144C37.6073 83.7736 37.5907 81.7058 37.803 79.9664Z" stroke="#81A0B4" mask="url(#path-1-inside-1_366_728)"/>
<path d="M137.433 87.6715C136.404 87.6854 135.499 87.4758 134.72 87.0425C133.955 86.5952 133.349 85.9941 132.904 85.2393C132.473 84.4705 132.243 83.6248 132.215 82.7023C132.201 81.7517 132.417 80.9131 132.862 80.1862C133.308 79.4454 133.927 78.8583 134.72 78.425C135.513 77.9916 136.417 77.775 137.433 77.775C138.435 77.761 139.319 77.9707 140.084 78.404C140.863 78.8373 141.482 79.4244 141.942 80.1652C142.401 80.9061 142.644 81.7517 142.672 82.7023C142.686 83.6108 142.47 84.4425 142.025 85.1974C141.58 85.9382 140.961 86.5323 140.167 86.9796C139.374 87.4129 138.463 87.6435 137.433 87.6715ZM137.496 84.6103C137.872 84.6103 138.199 84.4635 138.477 84.17C138.755 83.8764 138.894 83.534 138.894 83.1426C138.894 82.7512 138.755 82.4157 138.477 82.1362C138.199 81.8426 137.872 81.6958 137.496 81.6958C137.12 81.6958 136.793 81.8426 136.515 82.1362C136.237 82.4157 136.097 82.7512 136.097 83.1426C136.097 83.534 136.237 83.8764 136.515 84.17C136.793 84.4635 137.12 84.6103 137.496 84.6103Z" stroke="#81A0B4" mask="url(#path-1-inside-1_366_728)"/>
<path d="M152.313 87.6505C151.757 87.6505 151.36 87.4967 151.123 87.1892C150.901 86.8677 150.769 86.4694 150.727 85.9941C150.685 85.5049 150.664 85.0156 150.664 84.5264C150.664 83.7856 150.56 83.1915 150.351 82.7442C150.142 82.2829 149.774 82.0523 149.245 82.0523C148.772 82.0523 148.424 82.2829 148.201 82.7442C147.979 83.1915 147.867 83.7856 147.867 84.5264C147.867 85.0156 147.847 85.4979 147.805 85.9731C147.777 86.4484 147.652 86.8468 147.429 87.1683C147.206 87.4758 146.803 87.6295 146.219 87.6295C145.787 87.6295 145.425 87.4688 145.133 87.1473C144.855 86.8258 144.639 86.4065 144.486 85.8893C144.333 85.3721 144.222 84.813 144.152 84.2119C144.097 83.6108 144.069 83.0307 144.069 82.4716C144.069 81.9125 144.097 81.3394 144.152 80.7523C144.208 80.1652 144.305 79.6201 144.444 79.1169C144.597 78.6137 144.813 78.2083 145.091 77.9008C145.37 77.5933 145.732 77.4395 146.177 77.4395C146.97 77.4395 147.464 77.8029 147.659 78.5298C147.826 78.3481 148.09 78.1804 148.452 78.0266C148.827 77.8589 149.252 77.775 149.725 77.775C150.796 77.775 151.673 78.0476 152.355 78.5927C153.037 79.1379 153.531 79.8927 153.837 80.8572C154.157 81.8077 154.31 82.9119 154.296 84.17C154.296 84.8129 154.233 85.4 154.108 85.9312C153.997 86.4484 153.795 86.8677 153.503 87.1892C153.224 87.4967 152.828 87.6505 152.313 87.6505Z" stroke="#81A0B4" mask="url(#path-1-inside-1_366_728)"/>
</g>
<g filter="url(#filter1_d_366_728)">
<path d="M92.7267 87.6507C91.6971 87.6507 90.7996 87.3991 90.0343 86.8959C89.2829 86.3787 88.6985 85.6658 88.2811 84.7572C87.8775 83.8347 87.6758 82.7723 87.6758 81.5702C87.6758 80.3961 87.8567 79.4735 88.2184 78.8026C88.5941 78.1316 89.1229 77.7961 89.8047 77.7961C90.2917 77.7961 90.6604 77.887 90.9109 78.0687C91.1753 78.2504 91.3492 78.4811 91.4327 78.7606C91.5301 79.0262 91.5788 79.3128 91.5788 79.6203C91.5788 80.0117 91.551 80.41 91.4953 80.8154C91.4536 81.2208 91.4327 81.6541 91.4327 82.1154C91.4327 82.7723 91.8293 83.5621 91.8293 83.5621C91.8293 83.5621 92.4067 84.0024 92.7267 84.0024C93.0746 84.0024 93.3738 83.8556 93.6242 83.5621C93.8886 83.2546 94.0208 82.7723 94.0208 82.1154C94.0208 81.6541 93.9999 81.2417 93.9582 80.8783C93.9164 80.5149 93.8956 80.1025 93.8956 79.6412C93.8956 79.152 94.0138 78.7257 94.2504 78.3623C94.4869 77.9848 94.96 77.7961 95.6697 77.7961C96.3515 77.7961 96.8733 78.1316 97.235 78.8026C97.5968 79.4735 97.7777 80.3961 97.7777 81.5702C97.7777 82.7723 97.5899 83.8347 97.2142 84.7572C96.8385 85.6658 96.2749 86.3787 95.5236 86.8959C94.7861 87.3991 93.8538 87.6507 92.7267 87.6507Z" fill="#F86BC2"/>
<path d="M91.8293 83.5621L91.6058 83.6742L91.6058 83.6741L91.6056 83.6738L91.6053 83.6731L91.6041 83.6708L91.6002 83.6628L91.5863 83.634C91.5746 83.6092 91.5581 83.5737 91.5386 83.5293C91.4994 83.4406 91.4474 83.3155 91.3954 83.1687C91.2931 82.8803 91.1827 82.4866 91.1827 82.1154C91.1827 81.6466 91.2039 81.2047 91.2466 80.7898L91.2475 80.7814L91.2476 80.7814C91.3018 80.3868 91.3288 79.9998 91.3288 79.6203C91.3288 79.3396 91.2844 79.0824 91.198 78.8467L91.1953 78.8395L91.1931 78.8322C91.1276 78.6128 90.9916 78.4276 90.7693 78.2747L90.764 78.2711L90.7641 78.2711C90.5745 78.1335 90.2671 78.0461 89.8047 78.0461C89.2271 78.0461 88.7758 78.32 88.4375 78.923C88.1039 79.5429 87.9258 80.4182 87.9258 81.5702C87.9258 82.7435 88.1225 83.77 88.5092 84.6549C88.9092 85.5247 89.4647 86.1997 90.1738 86.6884C90.8929 87.1606 91.7406 87.4007 92.7267 87.4007C93.8166 87.4007 94.6961 87.1577 95.3823 86.6896C96.0904 86.2021 96.6242 85.5294 96.9829 84.6624C97.344 83.7754 97.5277 82.7463 97.5277 81.5702C97.5277 80.4171 97.3493 79.5412 97.015 78.9212C96.8496 78.6145 96.6552 78.3982 96.4372 78.258C96.2205 78.1188 95.9676 78.0461 95.6697 78.0461C94.9928 78.0461 94.6305 78.2265 94.4622 78.495L94.4599 78.4986L94.4599 78.4986C94.2531 78.8164 94.1456 79.194 94.1456 79.6412C94.1456 80.0953 94.1661 80.4979 94.2065 80.8498C94.2496 81.2247 94.2708 81.6469 94.2708 82.1154C94.2708 82.7972 94.1351 83.3511 93.8141 83.7247C93.522 84.0669 93.1562 84.2524 92.7267 84.2524C92.5973 84.2524 92.4648 84.2099 92.3554 84.1644C92.2412 84.1169 92.1278 84.0554 92.0298 83.9969C91.9312 83.938 91.8439 83.8795 91.7814 83.8359C91.75 83.814 91.7246 83.7957 91.7068 83.7826L91.686 83.7672L91.6802 83.7628L91.6785 83.7615L91.678 83.7611L91.6778 83.761L91.6777 83.7609L91.8293 83.5621ZM91.8293 83.5621L91.6058 83.6743L91.6318 83.7259L91.6777 83.7609L91.8293 83.5621Z" stroke="white" stroke-width="0.5"/>
</g>
<g filter="url(#filter2_d_366_728)">
<path d="M35.3783 15.6212C35.3783 9.39959 36.9477 5.21898 40.0864 3.07941C43.0569 1.0806 48.6478 0.0812003 56.8588 0.0811994H61.1045L61.1045 8.06235C61.1045 14.4248 59.4931 18.9573 56.2703 21.6599C52.9915 24.3625 47.3446 25.7138 39.3297 25.7138H35.3783L35.3783 15.6212Z" fill="#F8A3DA"/>
<path d="M6 11.3293C6 5.07231 11.0493 0 17.2778 0C23.5064 0 28.5556 5.07232 28.5556 11.3294V46.4417C28.5556 52.6988 23.5064 57.7711 17.2778 57.7711C11.0493 57.7711 6 52.6987 6 46.4417V11.3293Z" fill="#F86BC2"/>
<path d="M39.1356 29.4774H35.1841V40.0345C35.1841 46.3687 36.7535 50.7605 39.8922 53.2097C43.0309 55.6308 48.6217 56.8414 56.6647 56.8414H60.9103V48.4801C60.9103 41.977 59.2989 37.2193 56.0762 34.207C52.6852 31.0539 47.0384 29.4774 39.1356 29.4774Z" fill="#F86BC2"/>
<path d="M69.6162 17.6063C69.6162 8.66766 76.8294 1.42151 85.7274 1.42151C89.2866 1.42151 92.1718 4.31998 92.1718 7.89543V43.0078C92.1718 51.9464 84.9586 59.1926 76.0607 59.1926C72.5015 59.1926 69.6162 56.2941 69.6162 52.7187V17.6063Z" fill="#50E3C2"/>
<path d="M95.6151 24.4264H113.177V25.3587C113.177 31.1486 108.505 35.8422 102.742 35.8422H95.6151V24.4264Z" fill="#F86BC2"/>
<path d="M97.733 1.54706H121.063V17.5094H116.691C109.097 17.5094 103.912 16.3129 101.138 13.92C98.868 11.9493 97.733 8.7681 97.733 4.37636V1.54706Z" fill="#1877F2"/>
<path d="M128.092 46.5017C128.092 43.9399 129.157 41.2091 131.287 38.3094L133.01 36.0291L163.36 0.134997L183.958 0.134992V12.2968C183.958 15.3653 182.263 19.0111 178.872 23.2339L147.933 57.6077L128.092 57.6077L128.092 46.5017ZM183.958 50.1333C183.958 53.8213 183.538 56.3127 182.697 57.6077H157.349L179.796 33.1998C182.122 34.5229 183.468 37.676 183.832 42.6589C183.944 44.2073 184 45.8401 184 47.5574L183.958 50.1333Z" fill="#1877F2"/>
<path d="M129.577 0.195119C128.68 1.51827 128.232 3.99567 128.232 7.62731C128.232 16.439 129.633 21.6612 132.436 23.294L133.697 23.294L155.303 0.195119H129.577Z" fill="#1877F2"/>
<path d="M129.577 0.195119C128.68 1.51827 128.232 3.99567 128.232 7.62731C128.232 16.439 129.633 21.6612 132.436 23.294L133.697 23.294L155.303 0.195119H129.577Z" fill="#87B6F8"/>
<path d="M182.958 50.117L182.958 50.1252V50.1333C182.958 51.9444 182.854 53.4295 182.657 54.6015C182.51 55.4704 182.318 56.1282 182.102 56.6077H159.627L179.943 34.5176C181.46 35.7972 182.517 38.393 182.835 42.7318C182.944 44.2512 183 45.857 183 47.5495C183 47.5521 183 47.5548 183 47.5574L182.958 50.117ZM36.3783 15.6212C36.3783 9.51778 37.9223 5.76639 40.6473 3.90727C41.9695 3.01847 43.9554 2.3028 46.6834 1.81515C49.4014 1.32929 52.7887 1.0812 56.8588 1.0812H60.1045L60.1045 8.06235C60.1045 14.2804 58.5292 18.4585 55.6309 20.891C52.632 23.3606 47.2886 24.7138 39.3297 24.7138H36.3783L36.3783 15.6212ZM7 11.3293C7 5.62029 11.6058 1 17.2778 1C22.9498 1 27.5556 5.62031 27.5556 11.3294V46.4417C27.5556 52.1508 22.9498 56.7711 17.2778 56.7711C11.6058 56.7711 7 52.1508 7 46.4417V11.3293ZM36.1841 40.0345V30.4774H39.1356C46.9506 30.4774 52.2819 32.0447 55.3947 34.9388C58.3347 37.6877 59.9103 42.1228 59.9103 48.4801V55.8414H56.6647C48.6553 55.8414 43.3628 54.6224 40.5052 52.4196C37.7254 50.249 36.1841 46.2419 36.1841 40.0345ZM70.6162 17.6063C70.6162 9.21565 77.386 2.42151 85.7274 2.42151C88.73 2.42151 91.1718 4.86796 91.1718 7.89543V43.0078C91.1718 51.3984 84.4021 58.1926 76.0607 58.1926C73.0581 58.1926 70.6162 55.7461 70.6162 52.7187V17.6063ZM96.6151 25.4264H112.177C112.141 30.6371 107.926 34.8422 102.742 34.8422H96.6151V25.4264ZM98.733 2.54706H120.063V16.5094H116.691C109.123 16.5094 104.272 15.3008 101.793 13.1642C99.8274 11.4575 98.733 8.61427 98.733 4.37636V2.54706ZM129.092 46.5017C129.092 44.225 130.038 41.7001 132.089 38.9067C132.09 38.9049 132.091 38.9032 132.092 38.9014L133.791 36.6538L163.824 1.135L182.958 1.13499V12.2968C182.958 15.0149 181.443 18.429 178.109 22.5859L147.488 56.6077L129.092 56.6077L129.092 46.5017ZM129.232 7.62731C129.232 5.84747 129.342 4.38408 129.552 3.22363C129.711 2.34935 129.919 1.68391 130.155 1.19512H152.999L133.263 22.294L132.726 22.294C131.75 21.6173 130.879 20.2406 130.249 17.8936C129.581 15.403 129.232 11.9931 129.232 7.62731Z" stroke="white" stroke-width="2"/>
</g>
<defs>
<filter id="filter0_d_366_728" x="17.5669" y="71.2263" width="153.732" height="28.7737" filterUnits="userSpaceOnUse" color-interpolation-filters="sRGB">
<feFlood flood-opacity="0" result="BackgroundImageFix"/>
<feColorMatrix in="SourceAlpha" type="matrix" values="0 0 0 0 0 0 0 0 0 0 0 0 0 0 0 0 0 0 127 0" result="hardAlpha"/>
<feOffset dy="6"/>
<feGaussianBlur stdDeviation="3"/>
<feComposite in2="hardAlpha" operator="out"/>
<feColorMatrix type="matrix" values="0 0 0 0 0 0 0 0 0 0 0 0 0 0 0 0 0 0 0.15 0"/>
<feBlend mode="normal" in2="BackgroundImageFix" result="effect1_dropShadow_366_728"/>
<feBlend mode="normal" in="SourceGraphic" in2="effect1_dropShadow_366_728" result="shape"/>
</filter>
<filter id="filter1_d_366_728" x="81.6758" y="77.7961" width="22.1021" height="21.8545" filterUnits="userSpaceOnUse" color-interpolation-filters="sRGB">
<feFlood flood-opacity="0" result="BackgroundImageFix"/>
<feColorMatrix in="SourceAlpha" type="matrix" values="0 0 0 0 0 0 0 0 0 0 0 0 0 0 0 0 0 0 127 0" result="hardAlpha"/>
<feOffset dy="6"/>
<feGaussianBlur stdDeviation="3"/>
<feComposite in2="hardAlpha" operator="out"/>
<feColorMatrix type="matrix" values="0 0 0 0 0 0 0 0 0 0 0 0 0 0 0 0 0 0 0.15 0"/>
<feBlend mode="normal" in2="BackgroundImageFix" result="effect1_dropShadow_366_728"/>
<feBlend mode="normal" in="SourceGraphic" in2="effect1_dropShadow_366_728" result="shape"/>
</filter>
<filter id="filter2_d_366_728" x="0" y="0" width="190" height="71.1926" filterUnits="userSpaceOnUse" color-interpolation-filters="sRGB">
<feFlood flood-opacity="0" result="BackgroundImageFix"/>
<feColorMatrix in="SourceAlpha" type="matrix" values="0 0 0 0 0 0 0 0 0 0 0 0 0 0 0 0 0 0 127 0" result="hardAlpha"/>
<feOffset dy="6"/>
<feGaussianBlur stdDeviation="3"/>
<feComposite in2="hardAlpha" operator="out"/>
<feColorMatrix type="matrix" values="0 0 0 0 0 0 0 0 0 0 0 0 0 0 0 0 0 0 0.15 0"/>
<feBlend mode="normal" in2="BackgroundImageFix" result="effect1_dropShadow_366_728"/>
<feBlend mode="normal" in="SourceGraphic" in2="effect1_dropShadow_366_728" result="shape"/>
</filter>
</defs>
</svg>
