<svg width="28" height="27" viewBox="0 0 28 27" fill="none" xmlns="http://www.w3.org/2000/svg">
<path fill-rule="evenodd" clip-rule="evenodd" d="M13.6695 2.44458C11.9593 2.44473 10.2739 2.85386 8.75394 3.63783C7.234 4.42181 5.92357 5.55791 4.932 6.95133C3.94042 8.34476 3.29645 9.95511 3.05381 11.648C2.81117 13.341 2.97689 15.0674 3.53716 16.6832C4.09742 18.299 5.03598 19.7575 6.27453 20.9368C7.51307 22.1162 9.01569 22.9822 10.657 23.4627C12.2984 23.9433 14.0308 24.0243 15.7098 23.6991C17.3888 23.3739 18.9657 22.6519 20.309 21.5933L24.917 26.2013C25.1549 26.4311 25.4737 26.5583 25.8045 26.5554C26.1353 26.5526 26.4518 26.4199 26.6857 26.1859C26.9197 25.952 27.0524 25.6355 27.0553 25.3047C27.0581 24.9739 26.931 24.6551 26.7011 24.4171L22.0931 19.8091C23.3397 18.2277 24.1159 16.3271 24.3329 14.3251C24.5498 12.3231 24.1988 10.3004 23.3198 8.48861C22.4409 6.67679 21.0697 5.14902 19.363 4.08013C17.6564 3.01125 15.6832 2.44444 13.6695 2.44458ZM5.46795 13.1697C5.46795 10.9945 6.33204 8.9084 7.87013 7.37031C9.40822 5.83222 11.4943 4.96813 13.6695 4.96813C15.8447 4.96813 17.9308 5.83222 19.4689 7.37031C21.007 8.9084 21.871 10.9945 21.871 13.1697C21.871 15.3449 21.007 17.431 19.4689 18.969C17.9308 20.5071 15.8447 21.3712 13.6695 21.3712C11.4943 21.3712 9.40822 20.5071 7.87013 18.969C6.33204 17.431 5.46795 15.3449 5.46795 13.1697Z" fill="white"/>
</svg>
